<svg width="138" height="35" viewBox="0 0 138 35" fill="none" xmlns="http://www.w3.org/2000/svg">
<path d="M135.44 0.59519L58.0586 9.08105L60.6188 34.5088L138 26.0229L135.44 0.59519Z" fill="#B0083A"/>
<path opacity="0.2" d="M136.487 3.35641L58.7236 6.19043L59.5786 31.7436L137.342 28.9096L136.487 3.35641Z" fill="#F00F52"/>
<path d="M136.937 4.76514H59.127V30.3335H136.937V4.76514Z" fill="#D40E49"/>
<path d="M0 10.3125H3.83231C5.36067 10.3125 6.50124 10.5982 7.27683 11.1457C8.05241 11.7171 8.4402 12.6931 8.4402 14.1215C8.4402 15.0975 8.32615 15.8593 8.07522 16.4307C7.8243 17.002 7.39088 17.4543 6.72935 17.7638L8.6227 24.7866H5.47473L3.94637 18.2876H3.07953V24.7866H0V10.3125ZM3.92355 16.4545C4.53946 16.4545 4.97288 16.2878 5.2238 15.9546C5.47473 15.6213 5.58878 15.0975 5.58878 14.431C5.58878 13.7644 5.47473 13.2883 5.24661 12.955C5.0185 12.6217 4.63071 12.4551 4.06042 12.4551H3.05672V16.4545H3.92355Z" fill="black"/>
<path d="M10.2881 10.3125H16.5384V12.5028H13.3448V16.0976H15.7628V18.3117H13.3448V22.6446H16.5612V24.811H10.2881V10.3125Z" fill="black"/>
<path d="M18.1347 10.3125H21.4196L22.9479 18.7402L24.5903 10.3125H27.7611L28.012 24.811H25.845L25.594 15.1692L23.9744 24.811H22.0355L20.3018 15.0739L20.0965 24.7872H17.8838L18.1347 10.3125Z" fill="black"/>
<path d="M30.795 23.8103C30.1563 23.0009 29.8369 21.8106 29.8369 20.2395V14.8594C29.8369 13.2882 30.1563 12.0979 30.795 11.3124C31.4337 10.5268 32.5058 10.1221 34.0114 10.1221C35.5169 10.1221 36.5891 10.5268 37.2506 11.3124C37.8893 12.1217 38.2087 13.2882 38.2087 14.8594V20.2395C38.2087 21.8106 37.8893 23.0009 37.2506 23.8103C36.6119 24.6197 35.5169 25.0244 34.0114 25.0244C32.5058 25.0244 31.4337 24.6197 30.795 23.8103ZM34.8554 22.2868C34.9923 21.9773 35.0607 21.5726 35.0607 21.0489V14.0738C35.0607 13.5263 34.9923 13.1216 34.8554 12.8121C34.7185 12.5026 34.422 12.3598 33.9886 12.3598C33.578 12.3598 33.3042 12.5026 33.1674 12.8121C33.0305 13.1216 32.9621 13.5263 32.9621 14.05V21.0251C32.9621 21.5488 33.0305 21.9535 33.1446 22.263C33.2814 22.5724 33.5552 22.7153 33.9886 22.7153C34.422 22.7391 34.7185 22.5962 34.8554 22.2868Z" fill="black"/>
<path d="M41.1748 12.6932H39.0762V10.3125H46.3302V12.6932H44.2543V24.811H41.1748V12.6932Z" fill="black"/>
<path d="M53.8356 22.6445V24.811H47.6309V10.312H53.7899V12.4785H50.6191V16.0973H53.0372V18.3115H50.6191V22.6445H53.8356Z" fill="black"/>
<path d="M67.7041 10.312H70.7836V16.1686H72.9279V10.312H76.0074V24.8105H72.9279V18.454H70.7836V24.7867H67.7041V10.312Z" fill="white"/>
<path d="M78.1064 10.312H84.3567V12.5023H81.186V16.0971H83.604V18.3112H81.186V22.6441H84.4024V24.8105H78.1293V10.312H78.1064Z" fill="white"/>
<path d="M85.7705 10.312H88.85V22.6441H92.0436V24.8105H85.7705V10.312Z" fill="white"/>
<path d="M93.3666 10.312H98.0201C99.2519 10.312 100.164 10.6691 100.757 11.3833C101.373 12.0975 101.67 13.1451 101.67 14.5021C101.67 16.0495 101.328 17.1208 100.621 17.7398C99.9134 18.335 98.9325 18.6445 97.6551 18.6445H96.4233V24.8105H93.3438V10.312H93.3666ZM97.4726 16.4066C98.0201 16.4066 98.3623 16.2638 98.5447 15.9543C98.7272 15.6448 98.8185 15.1449 98.8185 14.4545C98.8185 13.8117 98.7272 13.3355 98.5676 13.026C98.3851 12.7165 98.0201 12.5499 97.4726 12.5499H96.4689V16.4066H97.4726Z" fill="white"/>
<path d="M103.153 10.312H109.404V12.5023H106.233V16.0971H108.651V18.3112H106.233V22.6441H109.449V24.8105H103.176V10.312H103.153Z" fill="white"/>
<path d="M110.818 10.312H114.65C116.178 10.312 117.319 10.5977 118.095 11.1453C118.87 11.7166 119.258 12.6927 119.258 14.1211C119.258 15.0972 119.144 15.859 118.893 16.4304C118.642 17.0018 118.209 17.4541 117.547 17.7636L119.44 24.7866H116.27L114.741 18.2873H113.874V24.7866H110.795V10.312H110.818ZM114.741 16.4542C115.357 16.4542 115.791 16.2875 116.042 15.9543C116.292 15.621 116.407 15.0972 116.407 14.4306C116.407 13.764 116.292 13.2879 116.064 12.9546C115.836 12.6213 115.448 12.4546 114.878 12.4546H113.874V16.4542H114.741Z" fill="white"/>
<path d="M121.767 23.9062C121.128 23.1682 120.786 22.0017 120.74 20.4067L123.364 20.002C123.364 20.9305 123.478 21.5732 123.683 21.9779C123.888 22.3826 124.185 22.5731 124.573 22.5731C125.097 22.5731 125.348 22.216 125.348 21.5256C125.348 20.9543 125.234 20.4781 124.983 20.0734C124.732 19.6687 124.344 19.2402 123.82 18.7641L122.611 17.669C122.018 17.1453 121.561 16.5978 121.242 16.0026C120.923 15.4075 120.763 14.7171 120.763 13.9077C120.763 12.6936 121.105 11.7652 121.79 11.0986C122.474 10.432 123.432 10.1226 124.641 10.1226C125.964 10.1226 126.854 10.5273 127.333 11.3129C127.812 12.1223 128.063 13.0745 128.085 14.2172L125.439 14.5505C125.417 13.7887 125.348 13.2649 125.234 12.9317C125.12 12.5984 124.892 12.4317 124.527 12.4317C124.253 12.4317 124.071 12.5508 123.911 12.7888C123.774 13.0269 123.706 13.2887 123.706 13.5744C123.706 14.0743 123.82 14.479 124.025 14.8123C124.23 15.1456 124.573 15.5265 125.052 15.955L126.192 17.0025C126.876 17.6214 127.401 18.2642 127.789 18.9308C128.177 19.6211 128.359 20.4067 128.359 21.3352C128.359 22.0255 128.2 22.6207 127.903 23.192C127.606 23.7396 127.173 24.1919 126.626 24.5013C126.078 24.8346 125.439 24.9775 124.732 24.9775C123.386 25.0251 122.405 24.6442 121.767 23.9062Z" fill="white"/>
</svg>
