<?xml version="1.0" standalone="no"?>
<!DOCTYPE svg PUBLIC "-//W3C//DTD SVG 20010904//EN"
 "http://www.w3.org/TR/2001/REC-SVG-20010904/DTD/svg10.dtd">
<svg version="1.0" xmlns="http://www.w3.org/2000/svg"
 width="512.000000pt" height="512.000000pt" viewBox="0 0 512.000000 512.000000"
 preserveAspectRatio="xMidYMid meet">
<metadata>
Created by potrace 1.14, written by Peter Selinger 2001-2017
</metadata>
<g transform="translate(0.000000,512.000000) scale(0.100000,-0.100000)"
fill="#000000" stroke="none">
<path d="M750 2565 l0 -1445 320 0 320 0 0 645 0 646 87 -3 87 -3 156 -640
155 -640 328 -3 c180 -1 327 1 327 5 0 4 -85 314 -190 689 -104 374 -190 688
-190 696 0 8 19 23 43 35 100 49 199 162 242 276 50 135 75 380 55 547 -38
330 -174 497 -472 584 -174 50 -255 56 -782 56 l-486 0 0 -1445z m992 983 c67
-31 110 -84 135 -167 24 -79 25 -305 1 -381 -29 -92 -68 -144 -135 -176 -54
-27 -67 -29 -205 -33 l-148 -3 0 397 0 397 148 -4 c133 -3 152 -6 204 -30z"/>
<path d="M2640 2565 l0 -1445 320 0 320 0 2 633 3 632 220 0 220 0 3 -632 2
-633 320 0 320 0 0 1445 0 1445 -320 0 -320 0 -2 -582 -3 -583 -220 0 -220 0
-3 583 -2 582 -320 0 -320 0 0 -1445z"/>
</g>
</svg>
