<svg width="487" height="116" viewBox="0 0 487 116" fill="none" xmlns="http://www.w3.org/2000/svg">
<path d="M0.432739 32.9996H13.9449C19.3337 32.9996 23.3552 33.9698 26.0898 35.8293C28.8244 37.7697 30.1917 41.0845 30.1917 45.9355C30.1917 49.2503 29.7895 51.8374 28.9048 53.7778C28.0201 55.7182 26.4919 57.2543 24.1595 58.3053L30.8351 82.1557H19.7358L14.3471 60.084H11.2907V82.1557H0.432739V32.9996ZM14.2666 53.8586C16.4382 53.8586 17.9664 53.2927 18.8511 52.1608C19.7358 51.0289 20.138 49.2503 20.138 46.9865C20.138 44.7227 19.7358 43.1057 18.9315 41.9739C18.1272 40.842 16.7599 40.276 14.7492 40.276H11.2103V53.8586H14.2666Z" fill="#FBFBFD"/>
<path d="M36.7069 32.9996H58.7446V40.4377H47.4845V52.6459H56.01V60.1649H47.4845V74.8793H58.8251V82.2366H36.7069V32.9996Z" fill="#FBFBFD"/>
<path d="M473.995 0.420133L209.114 28.3984C206.918 28.6304 205.323 30.5996 205.553 32.7967L213.748 111.194C213.977 113.391 215.944 114.985 218.141 114.752L483.022 86.7742C485.219 86.5422 486.814 84.573 486.584 82.3759L478.389 3.97821C478.159 1.78109 476.192 0.188088 473.995 0.420133Z" fill="#FFD500"/>
<path opacity="0.2" d="M477.667 9.51645L211.482 18.8602C209.274 18.9377 207.547 20.7903 207.623 22.9982L210.36 101.782C210.437 103.99 212.289 105.717 214.497 105.64L480.682 96.296C482.89 96.2185 484.617 94.3659 484.541 92.1581L481.804 13.3737C481.727 11.1659 479.875 9.43895 477.667 9.51645Z" fill="#1E0F00"/>
<path d="M479.103 14.0669H212.798C210.589 14.0669 208.798 15.8577 208.798 18.0669V97.1057C208.798 99.3149 210.589 101.106 212.798 101.106H479.103C481.312 101.106 483.103 99.3149 483.103 97.1057V18.0669C483.103 15.8577 481.312 14.0669 479.103 14.0669Z" fill="#005BBB"/>
<path d="M64.3742 32.9996H75.9561L81.3449 61.6201L87.1358 32.9996H98.3155L99.2002 82.2366H91.5594L90.6747 49.4928L84.9642 82.2366H78.1277L72.015 49.1694L71.2912 82.1557H63.4895L64.3742 32.9996Z" fill="#FBFBFD"/>
<path d="M109.012 78.8408C106.76 76.0919 105.634 72.0495 105.634 66.7135V48.4416C105.634 43.1056 106.76 39.0631 109.012 36.3951C111.264 33.7271 115.045 32.3527 120.353 32.3527C125.661 32.3527 129.442 33.7271 131.774 36.3951C134.026 39.144 135.152 43.1056 135.152 48.4416V66.7135C135.152 72.0495 134.026 76.0919 131.774 78.8408C129.522 81.5896 125.661 82.9641 120.353 82.9641C115.045 82.9641 111.264 81.5896 109.012 78.8408ZM123.329 73.6665C123.811 72.6154 124.053 71.241 124.053 69.4623V45.7736C124.053 43.9141 123.811 42.5396 123.329 41.4886C122.846 40.4376 121.801 39.9525 120.273 39.9525C118.825 39.9525 117.86 40.4376 117.377 41.4886C116.895 42.5396 116.653 43.9141 116.653 45.6928V69.3815C116.653 71.1601 116.895 72.5346 117.297 73.5856C117.779 74.6366 118.744 75.1217 120.273 75.1217C121.801 75.2026 122.846 74.7175 123.329 73.6665Z" fill="#FBFBFD"/>
<path d="M145.608 41.0845H138.208V32.9996H163.785V41.0845H156.466V82.2366H145.608V41.0845Z" fill="#FBFBFD"/>
<path d="M190.247 74.8793V82.2366H168.37V32.9996H190.086V40.3569H178.906V52.6459H187.432V60.1649H178.906V74.8793H190.247Z" fill="#FBFBFD"/>
<path d="M239.147 32.9997H250.005V52.8885H257.565V32.9997H268.423V82.2366H257.565V60.65H250.005V82.1558H239.147V32.9997Z" fill="#FBFBFD"/>
<path d="M275.823 32.9997H297.861V40.4378H286.681V52.6459H295.207V60.1649H286.681V74.8794H298.022V82.2366H275.904V32.9997H275.823Z" fill="#FBFBFD"/>
<path d="M302.847 32.9997H313.705V74.8794H324.965V82.2366H302.847V32.9997Z" fill="#FBFBFD"/>
<path d="M329.63 32.9997H346.038C350.381 32.9997 353.598 34.2124 355.69 36.6379C357.861 39.0633 358.907 42.6207 358.907 47.2291C358.907 52.4842 357.7 56.1224 355.207 58.2245C352.714 60.2457 349.255 61.2968 344.751 61.2968H340.408V82.2366H329.55V32.9997H329.63ZM344.108 53.697C346.038 53.697 347.245 53.2119 347.888 52.1608C348.531 51.1098 348.853 49.412 348.853 47.0674C348.853 44.8844 348.531 43.2675 347.968 42.2164C347.325 41.1654 346.038 40.5995 344.108 40.5995H340.569V53.697H344.108Z" fill="#FBFBFD"/>
<path d="M364.135 32.9997H386.172V40.4378H374.993V52.6459H383.518V60.1649H374.993V74.8794H386.333V82.2366H364.215V32.9997H364.135Z" fill="#FBFBFD"/>
<path d="M391.159 32.9997H404.672C410.06 32.9997 414.082 33.9699 416.816 35.8294C419.551 37.7697 420.918 41.0846 420.918 45.9355C420.918 49.2503 420.516 51.8375 419.631 53.7778C418.747 55.7182 417.219 57.2543 414.886 58.3054L421.562 82.1558H410.382L404.993 60.084H401.937V82.1558H391.079V32.9997H391.159ZM404.993 53.8587C407.165 53.8587 408.693 53.2927 409.578 52.1608C410.462 51.029 410.865 49.2503 410.865 46.9865C410.865 44.7227 410.462 43.1058 409.658 41.9739C408.854 40.842 407.487 40.2761 405.476 40.2761H401.937V53.8587H404.993Z" fill="#FBFBFD"/>
<path d="M429.765 79.1642C427.513 76.6579 426.307 72.6963 426.146 67.2794L435.395 65.905C435.395 69.0581 435.797 71.241 436.521 72.6155C437.245 73.9899 438.291 74.6367 439.658 74.6367C441.508 74.6367 442.393 73.4239 442.393 71.0793C442.393 69.139 441.99 67.522 441.106 66.1475C440.221 64.7731 438.854 63.3178 437.004 61.7009L432.741 57.9818C430.65 56.2031 429.041 54.3436 427.915 52.3224C426.789 50.3012 426.226 47.9566 426.226 45.2077C426.226 41.0844 427.433 37.9313 429.846 35.6675C432.258 33.4038 435.636 32.3527 439.899 32.3527C444.564 32.3527 447.701 33.7272 449.39 36.3952C451.079 39.144 451.964 42.378 452.044 46.2587L442.714 47.3906C442.634 44.8034 442.393 43.0248 441.99 41.8929C441.588 40.761 440.784 40.1951 439.497 40.1951C438.532 40.1951 437.888 40.5993 437.325 41.4078C436.843 42.2163 436.602 43.1056 436.602 44.0758C436.602 45.7736 437.004 47.1481 437.728 48.2799C438.451 49.4118 439.658 50.7054 441.347 52.1607L445.368 55.718C447.781 57.8201 449.631 60.003 450.999 62.2668C452.366 64.6114 453.009 67.2794 453.009 70.4325C453.009 72.7772 452.446 74.7984 451.401 76.7387C450.355 78.5983 448.827 80.1344 446.897 81.1854C444.966 82.3173 442.714 82.8024 440.221 82.8024C435.476 82.9641 432.017 81.6705 429.765 79.1642Z" fill="#FBFBFD"/>
</svg>