<svg width="338" height="80" viewBox="0 0 338 80" fill="none" xmlns="http://www.w3.org/2000/svg">
<path d="M331.706 -4.66738e-05L142.191 20.0176L148.462 80L337.976 59.9823L331.706 -4.66738e-05Z" fill="#FCCA0C"/>
<path opacity="0.2" d="M334.269 6.514L143.82 13.1992L145.914 73.4771L336.363 66.7919L334.269 6.514Z" fill="#FCCA0C"/>
<path d="M335.371 9.83594H144.809V70.15H335.371V9.83594Z" fill="#FCCA0C"/>
<path d="M0 22.9219H9.38568C13.1288 22.9219 15.9221 23.5958 17.8216 24.8874C19.7211 26.2352 20.6708 28.5377 20.6708 31.9072C20.6708 34.2097 20.3915 36.0068 19.777 37.3546C19.1624 38.7024 18.101 39.7694 16.4808 40.4995L21.1178 57.0662H13.4081L9.66501 41.7349H7.54206V57.0662H0V22.9219ZM9.60915 37.4107C11.1176 37.4107 12.179 37.0176 12.7936 36.2314C13.4081 35.4452 13.6874 34.2097 13.6874 32.6373C13.6874 31.0648 13.4081 29.9417 12.8494 29.1555C12.2908 28.3692 11.341 27.9761 9.94435 27.9761H7.4862V37.4107H9.60915Z" fill="black"/>
<path d="M25.1953 22.9219H40.5029V28.0884H32.6815V36.5684H38.6034V41.7911H32.6815V52.0119H40.5588V57.1223H25.1953V22.9219Z" fill="black"/>
<path d="M44.4153 22.9219H52.4602L56.2033 42.8019L60.2257 22.9219H67.9912L68.6058 57.1223H63.2984L62.6839 34.3782L58.7173 57.1223H53.9686L49.7227 34.1536L49.2199 57.0662H43.8008L44.4153 22.9219Z" fill="black"/>
<path d="M75.4206 54.7647C73.8564 52.8553 73.0742 50.0474 73.0742 46.3409V33.6492C73.0742 29.9427 73.8564 27.1348 75.4206 25.2816C76.9849 23.4283 79.6107 22.4736 83.2979 22.4736C86.9851 22.4736 89.6109 23.4283 91.231 25.2816C92.7953 27.1909 93.5774 29.9427 93.5774 33.6492V46.3409C93.5774 50.0474 92.7953 52.8553 91.231 54.7647C89.6667 56.6741 86.9851 57.6288 83.2979 57.6288C79.6107 57.6288 76.9849 56.6741 75.4206 54.7647ZM85.365 51.1706C85.7002 50.4405 85.8678 49.4858 85.8678 48.2503V31.7959C85.8678 30.5043 85.7002 29.5496 85.365 28.8195C85.0298 28.0895 84.3035 27.7525 83.242 27.7525C82.2364 27.7525 81.566 28.0895 81.2308 28.8195C80.8956 29.5496 80.728 30.5043 80.728 31.7398V48.1942C80.728 49.4297 80.8956 50.3843 81.1749 51.1144C81.5101 51.8445 82.1806 52.1814 83.242 52.1814C84.3035 52.2376 85.0298 51.9006 85.365 51.1706Z" fill="black"/>
<path d="M100.843 28.5377H95.7031V22.9219H113.469V28.5377H108.385V57.1223H100.843V28.5377Z" fill="black"/>
<path d="M131.848 52.0119V57.1223H116.652V22.9219H131.736V28.0323H123.971V36.5684H129.893V41.7911H123.971V52.0119H131.848Z" fill="black"/>
<path d="M165.812 22.9219H173.355V36.7368H178.606V22.9219H186.148V57.1223H178.606V42.128H173.355V57.0662H165.812V22.9219Z" fill="white"/>
<path d="M191.289 22.9219H206.597V28.0884H198.831V36.5684H204.753V41.7911H198.831V52.0119H206.708V57.1223H191.345V22.9219H191.289Z" fill="white"/>
<path d="M210.059 22.9219H217.601V52.0119H225.422V57.1223H210.059V22.9219Z" fill="white"/>
<path d="M228.661 22.9219H240.058C243.075 22.9219 245.31 23.7643 246.762 25.449C248.271 27.1338 248.997 29.6047 248.997 32.8058C248.997 36.456 248.159 38.9832 246.427 40.4433C244.695 41.8472 242.293 42.5773 239.164 42.5773H236.148V57.1223H228.605V22.9219H228.661ZM238.717 37.2984C240.058 37.2984 240.896 36.9615 241.343 36.2314C241.79 35.5014 242.014 34.322 242.014 32.6934C242.014 31.1772 241.79 30.054 241.399 29.3239C240.952 28.5939 240.058 28.2008 238.717 28.2008H236.259V37.2984H238.717Z" fill="white"/>
<path d="M252.633 22.9219H267.94V28.0884H260.175V36.5684H266.097V41.7911H260.175V52.0119H268.052V57.1223H252.689V22.9219H252.633Z" fill="white"/>
<path d="M271.4 22.9219H280.785C284.528 22.9219 287.322 23.5958 289.221 24.8874C291.121 26.2352 292.07 28.5377 292.07 31.9072C292.07 34.2097 291.791 36.0068 291.177 37.3546C290.562 38.7024 289.501 39.7694 287.88 40.4995L292.517 57.0662H284.752L281.009 41.7349H278.886V57.0662H271.344V22.9219H271.4ZM281.009 37.4107C282.517 37.4107 283.579 37.0176 284.193 36.2314C284.808 35.4452 285.087 34.2097 285.087 32.6373C285.087 31.0648 284.808 29.9417 284.249 29.1555C283.69 28.3692 282.741 27.9761 281.344 27.9761H278.886V37.4107H281.009Z" fill="white"/>
<path d="M298.217 54.9893C296.653 53.2484 295.815 50.4967 295.703 46.7341L302.128 45.7794C302.128 47.9695 302.407 49.4858 302.91 50.4405C303.413 51.3952 304.139 51.8445 305.089 51.8445C306.374 51.8445 306.988 51.0021 306.988 49.3735C306.988 48.0257 306.709 46.9025 306.094 45.9478C305.48 44.9931 304.53 43.9823 303.245 42.8591L300.284 40.2758C298.832 39.0404 297.714 37.7487 296.932 36.3448C296.15 34.9408 295.759 33.3122 295.759 31.4028C295.759 28.5387 296.597 26.3486 298.273 24.7761C299.949 23.2037 302.295 22.4736 305.256 22.4736C308.497 22.4736 310.676 23.4283 311.849 25.2816C313.022 27.1909 313.636 29.4373 313.692 32.1329L307.212 32.9191C307.156 31.122 306.988 29.8865 306.709 29.1003C306.43 28.3141 305.871 27.921 304.977 27.921C304.307 27.921 303.86 28.2018 303.469 28.7634C303.133 29.325 302.966 29.9427 302.966 30.6166C302.966 31.7959 303.245 32.7506 303.748 33.5368C304.251 34.3231 305.089 35.2216 306.262 36.2324L309.055 38.7034C310.731 40.1635 312.016 41.6798 312.966 43.2522C313.916 44.8808 314.363 46.7341 314.363 48.9242C314.363 50.5528 313.972 51.9568 313.245 53.3046C312.519 54.5962 311.458 55.6632 310.117 56.3933C308.776 57.1795 307.212 57.5165 305.48 57.5165C302.184 57.6288 299.781 56.7302 298.217 54.9893Z" fill="white"/>
</svg>
