<svg width="450" height="81" viewBox="0 0 450 81" fill="none" xmlns="http://www.w3.org/2000/svg">
<path d="M139.444 23.6475H149.148C153.019 23.6475 155.907 24.3443 157.871 25.6798C159.835 27.0734 160.817 29.4541 160.817 32.9381C160.817 35.3189 160.528 37.177 159.893 38.5706C159.257 39.9642 158.16 41.0675 156.485 41.8223L161.279 58.952H153.308L149.437 43.0998H147.242V58.952H139.444V23.6475ZM149.38 38.6287C150.939 38.6287 152.037 38.2222 152.672 37.4093C153.308 36.5963 153.596 35.3189 153.596 33.693C153.596 32.0671 153.308 30.9058 152.73 30.0929C152.152 29.2799 151.17 28.8735 149.726 28.8735H147.184V38.6287H149.38Z" fill="url(#paint0_linear_120_2)"/>
<path d="M165.496 23.6475H181.324V28.9896H173.237V37.7577H179.36V43.1579H173.237V53.726H181.382V59.01H165.496V23.6475Z" fill="url(#paint1_linear_120_2)"/>
<path d="M185.367 23.6475H193.685L197.556 44.2031L201.715 23.6475H209.744L210.38 59.01H204.892L204.256 35.4931L200.155 59.01H195.245L190.855 35.2608L190.335 58.952H184.732L185.367 23.6475Z" fill="url(#paint2_linear_120_2)"/>
<path d="M217.427 56.0358C215.809 54.0615 215 51.1582 215 47.3258V34.2027C215 30.3703 215.809 27.467 217.427 25.5508C219.044 23.6346 221.759 22.6475 225.572 22.6475C229.384 22.6475 232.099 23.6346 233.774 25.5508C235.392 27.5251 236.2 30.3703 236.2 34.2027V47.3258C236.2 51.1582 235.392 54.0615 233.774 56.0358C232.157 58.01 229.384 58.9972 225.572 58.9972C221.759 58.9972 219.044 58.01 217.427 56.0358ZM227.709 52.3195C228.055 51.5647 228.229 50.5775 228.229 49.3001V32.2865C228.229 30.951 228.055 29.9639 227.709 29.209C227.362 28.4541 226.611 28.1057 225.514 28.1057C224.474 28.1057 223.781 28.4541 223.434 29.209C223.088 29.9639 222.914 30.951 222.914 32.2285V49.242C222.914 50.5195 223.088 51.5066 223.376 52.2615C223.723 53.0163 224.416 53.3647 225.514 53.3647C226.611 53.4228 227.362 53.0744 227.709 52.3195Z" fill="url(#paint3_linear_120_2)"/>
<path d="M243.71 29.4541H238.396V23.6475H256.765V29.4541H251.508V59.01H243.71V29.4541Z" fill="url(#paint4_linear_120_2)"/>
<path d="M275.77 53.726V59.01H260.058V23.6475H275.655V28.9315H267.625V37.7577H273.748V43.1579H267.625V53.726H275.77Z" fill="url(#paint5_linear_120_2)"/>
<path d="M295.444 24.6475H303.242V38.9319H308.672V24.6475H316.47V60.01H308.672V44.5063H303.242V59.952H295.444V24.6475Z" fill="url(#paint6_linear_120_2)"/>
<path d="M321.785 24.6475H337.612V29.9896H329.583V38.7577H335.706V44.1579H329.583V54.726H337.728V60.01H321.842V24.6475H321.785Z" fill="url(#paint7_linear_120_2)"/>
<path d="M341.194 24.6475H348.992V54.726H357.079V60.01H341.194V24.6475Z" fill="url(#paint8_linear_120_2)"/>
<path d="M360.43 24.6475H372.214C375.333 24.6475 377.644 25.5185 379.146 27.2605C380.706 29.0025 381.456 31.5574 381.456 34.8672C381.456 38.6415 380.59 41.2545 378.799 42.7643C377.009 44.2159 374.525 44.9708 371.29 44.9708H368.17V60.01H360.372V24.6475H360.43ZM370.828 39.5125C372.214 39.5125 373.08 39.1641 373.543 38.4093C374.005 37.6544 374.236 36.435 374.236 34.7511C374.236 33.1833 374.005 32.0219 373.6 31.2671C373.138 30.5122 372.214 30.1057 370.828 30.1057H368.286V39.5125H370.828Z" fill="url(#paint9_linear_120_2)"/>
<path d="M385.211 24.6475H401.039V29.9896H393.009V38.7577H399.132V44.1579H393.009V54.726H401.154V60.01H385.269V24.6475H385.211Z" fill="url(#paint10_linear_120_2)"/>
<path d="M404.62 24.6475H414.325C418.195 24.6475 421.084 25.3443 423.048 26.6798C425.012 28.0734 425.994 30.4541 425.994 33.9381C425.994 36.3189 425.705 38.177 425.069 39.5706C424.434 40.9642 423.337 42.0675 421.661 42.8223L426.456 59.952H418.426L414.556 44.0998H412.361V59.952H404.563V24.6475H404.62ZM414.556 39.6287C416.116 39.6287 417.213 39.2222 417.849 38.4093C418.484 37.5963 418.773 36.3189 418.773 34.693C418.773 33.0671 418.484 31.9058 417.907 31.0929C417.329 30.2799 416.347 29.8735 414.903 29.8735H412.361V39.6287H414.556Z" fill="url(#paint11_linear_120_2)"/>
<path d="M432.348 57.268C430.73 55.468 429.864 52.6227 429.748 48.7322L436.391 47.7451C436.391 50.0097 436.68 51.5775 437.2 52.5647C437.72 53.5518 438.471 54.0163 439.453 54.0163C440.781 54.0163 441.417 53.1453 441.417 51.4614C441.417 50.0678 441.128 48.9065 440.493 47.9193C439.857 46.9322 438.875 45.887 437.547 44.7257L434.485 42.0546C432.983 40.7771 431.828 39.4416 431.019 37.9899C430.21 36.5383 429.806 34.8543 429.806 32.8801C429.806 29.9187 430.673 27.6541 432.406 26.0282C434.138 24.4023 436.565 23.6475 439.626 23.6475C442.977 23.6475 445.229 24.6346 446.443 26.5508C447.656 28.5251 448.291 30.8477 448.349 33.6349L441.648 34.4479C441.59 32.5897 441.417 31.3123 441.128 30.4993C440.839 29.6864 440.262 29.2799 439.337 29.2799C438.644 29.2799 438.182 29.5703 437.778 30.1509C437.431 30.7316 437.258 31.3703 437.258 32.0671C437.258 33.2865 437.547 34.2737 438.067 35.0866C438.586 35.8995 439.453 36.8286 440.666 37.8738L443.554 40.4287C445.287 41.9385 446.616 43.5063 447.598 45.1321C448.58 46.8161 449.042 48.7323 449.042 50.9968C449.042 52.6808 448.638 54.1324 447.887 55.526C447.136 56.8616 446.038 57.9648 444.652 58.7197C443.265 59.5326 441.648 59.881 439.857 59.881C436.449 59.9972 433.965 59.0681 432.348 57.268Z" fill="url(#paint12_linear_120_2)"/>
<path d="M121.235 38.0119C121.053 38.1218 120.596 37.4644 120.484 37.0036C120.373 36.5428 120.084 36.0165 120.084 35.3823C120.084 34.746 119.683 35.0526 119.418 35.1625C119.152 35.2724 119.107 34.8116 118.751 34.6805C118.396 34.5494 118.796 34.1754 119.128 33.8477C119.462 33.518 119.418 32.9705 119.484 32.795C119.55 32.6196 120.017 32.6408 120.307 32.6196C120.596 32.5984 120.818 32.4654 121.17 32.1588C121.522 31.8523 120.351 31.6768 119.797 31.7424C119.242 31.8079 118.931 31.9622 118.687 30.9751C118.443 29.988 119.597 30.3389 120.109 30.2965C120.619 30.2521 120.51 29.2226 120.531 28.9604C120.553 28.6983 120.82 28.2375 121.11 27.6013C121.399 26.9651 120.621 26.352 120.443 26.0455C120.265 25.7389 120.244 25.4536 120.488 25.3437C120.732 25.2338 120.799 24.6651 120.688 24.4241C120.576 24.1831 120.133 24.2275 120 24.5552C119.867 24.8849 119.111 25.016 118.224 24.9928C117.335 24.9716 116.936 23.9634 116.735 23.7224C116.536 23.4814 115.291 23.5469 114.781 23.5257C114.269 23.5045 114.337 22.824 114.07 22.7141C113.804 22.6042 113.425 23.1517 113.138 23.2404C112.849 23.3272 112.671 23.2404 112.559 22.9339C112.448 22.6273 111.694 22.6717 111.315 22.6717C110.938 22.6717 110.781 22.1897 110.492 21.7733C110.203 21.3568 109.603 22.0355 109.382 22.0798C109.16 22.1241 109.183 22.1897 108.472 21.5323C107.761 20.8749 107.516 21.2026 107.405 21.3125C107.294 21.4224 106.983 21.9256 107.249 22.2109C107.515 22.4962 106.782 22.6717 106.583 22.8683C106.383 23.065 105.738 21.9487 105.582 21.7733C105.426 21.5978 105.094 21.4224 104.295 21.2682C103.495 21.1139 103.517 20.1288 103.429 19.7336C103.341 19.3383 103.363 19.2516 103.118 19.0549C102.874 18.8583 102.096 18.2009 101.807 17.9599C101.518 17.7189 101.008 18.2664 100.719 18.6829C100.43 19.0993 100.43 18.9451 99.5642 19.0781C98.6986 19.2092 97.2098 19.9321 96.9871 20.4141C96.7643 20.8961 96.3657 20.0189 95.8773 19.8666C95.3888 19.7124 95.2989 20.0208 94.9453 20.1076C94.5897 20.1943 94.3005 19.7124 94.1012 19.4945C93.9019 19.2747 93.6577 18.8371 92.9464 18.6617C92.2352 18.4862 91.0141 19.5813 90.637 19.7567C90.2599 19.9321 89.9707 19.5369 89.8378 19.2516C89.705 18.9663 89.4607 18.5055 88.9938 18.0679C88.5268 17.6302 88.6596 16.8398 88.9723 16.4889C89.2829 16.138 88.9938 15.5693 88.9058 15.2609C88.816 14.9543 88.5952 14.4936 88.3275 14.3181C88.0618 14.1427 87.9054 13.2655 87.839 13.0033C87.7726 12.7411 86.8621 12.7623 86.5729 12.6524C86.2837 12.5425 86.6628 11.995 85.8168 11.2489C84.9727 10.5028 84.4178 11.5998 84.0837 11.7964C83.7496 11.9931 83.306 11.5555 82.884 11.2701C82.462 10.9848 82.1513 11.2489 81.7058 11.38C81.2623 11.5111 80.7054 11.3357 80.4612 11.139C80.217 10.9424 80.9712 10.5915 81.0395 10.2406C81.106 9.88976 80.8617 9.69311 80.4846 9.51767C80.1075 9.34224 80.4631 8.81592 80.4846 8.35516C80.5061 7.89439 79.9512 7.56665 79.7519 7.04034C79.5526 6.51402 80.4397 6.51402 81.4186 6.49282C82.3955 6.47161 81.6628 5.55008 81.4635 5.0469C81.2642 4.54372 80.4866 4.25839 79.9532 4.25839C79.4198 4.25839 79.5312 3.42554 79.242 2.74692C78.9528 2.06831 79.4647 1.93528 79.0857 1.65188C78.7086 1.36655 78.0853 0.489364 77.7531 0.0941465C77.419 -0.301071 76.3542 0.664802 76.0865 0.84024C75.8207 1.01568 75.7309 0.664802 75.5081 0.423816C75.2854 0.182829 74.5077 0.292719 74.0193 0.292719C73.5308 0.292719 73.3979 0.84024 72.9759 1.08123C72.5539 1.32221 72.1103 1.32221 71.6434 1.51886C71.1764 1.7155 70.7329 1.25666 70.3108 0.817105C69.8888 0.379474 68.9333 0.707216 68.5777 0.817105C68.2221 0.926995 68.4664 1.58441 68.4449 1.91215C68.4234 2.24182 68.1791 2.26302 68.0893 2.81054C68.0013 3.35806 66.8447 3.62219 66.5125 3.81883C66.1784 4.01548 65.9576 3.77449 65.7134 3.35807C65.4691 2.94164 63.1147 3.29252 62.6028 3.14021C62.0928 2.98791 62.0244 3.29252 61.8466 3.68773C61.6688 4.08295 60.3148 3.57784 59.9592 3.57784C59.6036 3.57784 59.3809 3.97306 59.3144 4.25646C59.248 4.54179 59.2695 4.69409 58.8709 4.78278C58.4704 4.86953 58.359 5.41898 58.1831 5.68117C58.0053 5.94337 57.7826 6.90924 57.427 7.67654C57.0714 8.44384 57.6263 9.43092 57.7826 9.82421C57.9389 10.2194 57.8275 10.898 57.6927 11.5998C57.5598 12.3015 56.538 11.2933 56.2937 11.2701C56.0495 11.2489 55.6939 10.0209 54.8498 9.40778C54.0058 8.79472 52.8276 9.77987 52.5618 10.0864C52.2961 10.3929 51.7627 9.64877 51.54 9.42899C51.3172 9.20921 51.0066 9.49454 50.2953 10.152C49.5841 10.8094 49.6076 10.3486 49.4298 10.1732C49.252 9.99772 49.3184 9.62564 49.0527 9.53695C48.787 9.44827 48.8749 9.29597 48.9198 8.92388C48.9648 8.5518 48.6541 7.69582 48.2985 7.69582C47.9429 7.69582 47.8315 7.9368 47.5658 8.39757C47.3001 8.85834 46.9874 8.63856 46.5888 8.63856C46.1883 8.63856 46.1883 9.42706 45.6998 9.6025C45.2114 9.77794 45.1449 8.61542 44.8343 8.30889C44.5236 8.00235 44.1465 8.54987 43.6131 8.68097C43.0797 8.81207 43.4568 7.80378 42.5697 7.65148C41.6807 7.49725 42.1926 8.24334 41.7921 8.39757C41.3915 8.5518 40.8366 7.9368 40.4381 7.9156C40.0375 7.89439 40.2388 8.92388 39.7503 9.36152C39.2618 9.79915 39.0625 7.80571 38.6835 7.63027C38.3064 7.45483 37.5502 7.87126 37.1282 7.89246C36.7062 7.91367 36.3056 7.08082 36.3056 7.08082C36.3056 7.08082 36.2841 6.20363 36.0614 5.9183C35.8386 5.63298 34.7503 6.1805 34.4846 6.26918C34.2189 6.35786 33.4178 5.67732 32.9743 5.65611C32.5307 5.6349 31.7296 5.43633 31.4639 5.43633C31.1982 5.43633 30.954 5.21655 30.7762 5.01991C30.5984 4.82326 30.2662 4.80013 29.9985 4.84447C29.7328 4.88881 29.0431 4.27381 28.9102 4.14272C28.7773 4.01162 28.4217 4.01162 28.1326 4.01162C27.8434 4.01162 27.6656 3.74943 27.2221 3.66074C26.7785 3.57206 26.333 3.83618 25.6453 3.88052C24.9575 3.92486 24.0451 3.30987 23.4687 3.15756C22.8903 3.00333 21.9583 3.74943 21.4914 3.83618C21.0244 3.92486 19.8696 3.52965 19.0041 3.52965C18.1385 3.52965 17.6715 4.82326 17.4273 5.06425C17.1831 5.30523 15.917 6.11688 15.5399 6.20363C15.1628 6.29231 14.3851 5.74287 13.7638 6.02819C13.1425 6.31352 13.3417 7.56279 13.6309 8.13152C13.9201 8.70218 13.3867 8.74459 13.0975 8.96437C12.8083 9.18415 13.5196 9.81843 13.8752 10.258C14.2308 10.6956 14.4535 11.4205 14.4086 12.1859C14.3636 12.9532 15.874 13.8304 15.9853 14.2024C16.0967 14.5745 14.9185 14.3779 14.6977 14.5977C14.475 14.8174 14.7857 15.1895 15.2077 15.5847C15.6297 15.98 14.9635 17.3391 14.7642 18.0833C14.5649 18.8294 13.3417 18.5441 12.9646 18.5865C12.5876 18.6308 11.9643 19.0472 11.72 19.4849C11.4758 19.9225 10.7646 20.0324 10.2097 20.3177C9.65479 20.603 9.38711 21.326 9.20931 21.5458C9.0315 21.7656 7.83183 23.0148 7.54265 23.2327C7.25348 23.4505 6.01082 25.2936 5.27616 26.0821C4.54346 26.8706 5.07686 27.0904 5.25467 27.6379C5.43247 28.1854 4.85412 29.1282 4.7662 29.8511C4.67827 30.5741 5.27616 30.7283 5.65521 30.925C6.03231 31.1216 5.76658 31.4956 5.76658 31.9333C5.76658 32.3709 5.18824 31.3857 4.85608 31.2971C4.52392 31.2103 4.61184 30.9674 3.99051 30.7495C3.36918 30.5298 3.52354 31.7366 3.30275 31.8446C3.08001 31.9545 2.68142 32.1954 2.76934 32.5463C2.85922 32.8972 2.32581 32.8529 2.05813 33.1382C1.7924 33.4235 1.83539 34.4761 1.76896 34.7383C1.70253 35.0005 0.659158 35.417 0.168736 36.163C-0.319732 36.9091 0.368031 37.1501 0.768575 37.3468C1.16912 37.5434 0.991316 37.7189 1.23555 38.2008C1.47978 38.6828 2.01319 39.0992 2.25743 39.2303C2.50166 39.3614 2.63452 39.853 2.87876 40.3581C2.96277 40.5297 3.17184 40.5316 3.41998 40.7244H31.6007C31.6105 40.5316 31.6124 40.1673 31.6534 39.9861C31.7414 39.5908 32.3862 40.3427 32.8316 40.5933C33.2752 40.844 33.453 40.2907 33.6308 40.2039C33.8086 40.1152 33.9414 40.2309 34.1857 40.6126C34.2111 40.6512 34.2384 40.7244 34.2697 40.7244H34.5335C34.7796 40.5316 35.0571 40.2656 35.186 40.0959C35.3853 39.8337 35.4752 39.9494 35.7644 39.9706C36.0536 39.9918 36.3642 39.612 36.6085 39.4154C36.8527 39.2188 36.6085 39.4115 37.0969 39.8068C37.5854 40.202 37.8961 39.8048 38.3845 39.8048C38.873 39.8048 38.8945 40.4931 39.1407 40.6126C39.1837 40.6338 39.2208 40.5336 39.2579 40.7264H120.797C120.809 40.5336 120.818 40.2386 120.84 40.1191C120.928 39.6159 120.795 38.8756 121.235 38.5691C121.674 38.2702 121.418 37.9039 121.235 38.0119Z" fill="#005BBB"/>
<path d="M4.70961 40.8401C4.99878 40.95 4.57674 41.4763 4.33251 42.0682C4.08827 42.66 4.62168 42.66 4.91085 42.2648C5.20003 41.8696 5.22152 41.8696 5.59862 41.8696C5.97572 41.8696 6.08709 41.4532 6.13203 40.9924C6.17696 40.5297 6.88817 40.9712 7.31021 41.5631C7.73225 42.1549 8.62126 42.3747 9.2211 42.5926C9.82094 42.8123 10.7529 42.5482 10.9757 42.9646C11.1984 43.3811 11.9976 42.7449 12.2633 43.0302C12.529 43.3155 13.0194 43.2924 13.2187 43.2924C13.418 43.2924 13.6408 43.73 13.9749 43.7743C14.309 43.8187 14.6626 43.7088 15.0182 43.6433C15.3738 43.5777 16.0616 43.5546 16.4172 43.6645C16.7728 43.7743 17.4391 44.9349 17.8162 45.1335C18.1933 45.3302 18.1054 45.9451 18.504 46.163C18.9045 46.3828 20.3035 44.9349 20.4363 44.5841C20.5692 44.2332 23.1913 44.1888 23.8791 44.3219C24.5668 44.453 24.9674 44.2332 25.4558 44.0153C25.9443 43.7956 26.5441 43.9286 27.2104 43.6857C27.8767 43.4447 28.0994 42.4807 28.3652 42.0855C28.6309 41.6903 30.1647 41.7559 30.4538 41.779C30.743 41.8002 30.5437 41.0117 30.5867 40.8363C30.6317 40.6608 31.2979 41.2083 31.4757 41.2083C31.5715 41.2083 31.5891 40.9577 31.6008 40.6666H3.40833C3.88702 40.79 4.52008 40.7688 4.70961 40.8401Z" fill="#FFD500"/>
<path d="M39.8285 41.191C40.1391 41.3009 40.0942 41.3009 40.2505 41.673C40.4049 42.0451 40.9402 42.396 41.3623 42.5058C41.7843 42.6157 42.0735 42.2861 42.1848 42.5058C42.2962 42.7256 41.9406 42.9435 42.1399 43.1555C42.3392 43.3676 42.3626 43.3387 42.6948 43.5353C43.0289 43.732 43.0289 43.5565 43.2946 43.2944C43.5604 43.0322 44.1387 43.2076 44.6721 43.2944C45.2055 43.3811 45.272 43.973 45.4498 44.347C45.6276 44.7191 45.8269 44.8945 46.2059 45.3341C46.583 45.7717 46.8272 44.9388 47.2063 44.8521C47.5834 44.7653 47.8061 45.7505 48.0054 45.8392C48.2047 45.9259 48.2712 46.2999 48.0269 46.4522C47.7827 46.6065 47.7612 46.7144 47.9605 47.0884C48.1598 47.4605 48.1383 47.3294 47.7827 47.5704C47.4271 47.8114 47.7377 48.4688 47.6713 48.623C47.6049 48.7773 47.472 49.2592 47.2043 49.7412C46.9386 50.2232 48.2712 50.9037 48.5818 51.1216C48.8925 51.3414 48.8925 51.8002 49.1367 51.8889C49.381 51.9756 49.5588 51.7135 49.6701 51.4281C49.7815 51.1428 50.5142 51.538 50.4478 51.9313C50.3813 52.3265 50.1371 52.8509 50.3364 52.9396C50.5357 53.0263 50.2915 53.3348 49.8929 53.6625C49.4923 53.9922 50.227 54.2332 50.4927 54.4511C50.7584 54.6708 50.3598 54.8887 50.227 55.174C50.0941 55.4593 50.7604 55.4805 51.0496 55.8102C51.3387 56.1399 51.7823 56.2054 52.2277 56.2054C52.6713 56.2054 53.0269 57.4104 53.1597 57.5434C53.2926 57.6745 53.1597 58.1565 52.8256 58.355C52.4915 58.5517 52.6693 58.837 53.0034 59.078C53.3375 59.319 52.8041 59.4077 52.47 59.7354C52.1359 60.0651 53.5583 60.6781 53.869 61.1158C54.1797 61.5534 53.2027 61.2912 52.8921 61.2912C52.5814 61.2912 52.5365 61.4223 52.3137 61.8175C52.091 62.2127 51.6689 60.5682 51.4911 60.5682C51.3133 60.5682 50.9362 60.8304 50.692 61.1389C50.4478 61.4454 50.27 60.8767 50.0707 60.8767C49.8714 60.8767 49.7815 60.3061 49.6037 60.2193C49.4259 60.1306 49.2266 60.3504 49.0937 60.6145C48.9609 60.8767 48.7381 60.5046 48.5603 60.5046C48.3825 60.5046 48.1168 60.8555 47.8491 60.9654C47.5834 61.0753 47.5834 59.826 47.4935 59.6274C47.4056 59.4308 46.8057 59.7161 46.583 59.9995C46.3603 60.2848 46.0047 60.4372 45.651 60.5914C45.2954 60.7456 45.4068 61.4898 45.4283 62.0161C45.4498 62.5424 46.2508 62.9145 46.3837 63.221C46.5166 63.5276 46.2508 63.703 45.9832 63.9228C45.7174 64.1426 45.9167 64.4279 45.8952 64.7768C45.8738 65.1277 45.0297 65.1277 44.3849 65.3475C43.7401 65.5673 44.0508 66.1591 44.0957 66.751C44.1407 67.3428 42.6733 67.9791 42.3411 68.3511C42.007 68.7232 42.3411 69.4038 42.1184 69.8202C41.8957 70.2366 40.8972 69.8202 40.5182 69.9956C40.1411 70.1711 40.1841 70.3908 40.5182 70.6087C40.8523 70.8285 40.696 71.0463 40.6745 71.6613C40.653 72.2744 42.5854 72.6908 43.1188 72.8894C43.6522 73.086 44.0078 72.9549 44.1622 72.4074C44.3185 71.8599 45.0727 72.2763 45.3169 72.232C45.5611 72.1876 45.6061 71.9467 45.7389 71.75C45.8718 71.5534 46.3837 71.75 46.8057 71.6845C47.2278 71.6189 47.2727 71.3124 47.6049 71.0058C47.939 70.6993 48.404 71.0058 48.5369 71.1369C48.6697 71.268 49.5802 71.4223 49.758 71.4878C49.9359 71.5534 50.2016 71.6633 50.1137 72.2108C50.0238 72.7583 50.2465 73.0436 50.7584 73.1747C51.2703 73.3058 51.0691 72.7371 51.2254 71.7943C51.3817 70.8516 50.9597 71.027 50.6471 70.8304C50.3364 70.6338 50.6471 70.2829 50.8034 69.9532C50.9597 69.6235 50.3598 69.3826 50.0922 69.1204C49.8264 68.8582 50.27 68.7695 50.3579 68.5497C50.4458 68.3299 50.5357 67.6725 50.6686 67.4759C50.8014 67.2792 51.1121 67.6957 50.9577 68.22C50.8014 68.7464 51.1355 68.461 51.4911 68.7464C51.8467 69.0317 52.2023 68.6808 52.2473 68.1757C52.2922 67.6706 52.513 67.6494 52.7807 67.2773C53.0464 66.9052 53.3805 66.6199 53.6463 66.6199C53.912 66.6199 54.7346 66.0724 55.1781 65.787C55.6216 65.5017 56.0007 64.7576 56.1335 64.4722C56.2664 64.1869 55.5552 63.595 55.2895 63.354C55.0237 63.1131 54.7346 62.7622 54.3575 62.367C53.9804 61.9718 54.4688 61.8638 54.6466 61.4686C54.8244 61.0734 54.9573 61.5573 55.225 61.7539C55.4907 61.9505 55.9128 62.126 56.0026 62.6523C56.0925 63.1786 56.8682 63.6818 57.2023 63.7917C57.5364 63.9016 57.468 63.0456 57.468 62.7564C57.468 62.4653 57.935 62.4113 58.1343 61.885C58.3336 61.3587 58.6228 61.1389 58.7556 60.9211C58.8885 60.7013 58.7341 60.175 58.7556 59.934C58.7771 59.693 59.2226 59.7797 59.5333 59.7585C59.8439 59.7373 60.1995 59.211 60.3109 59.1011C60.4223 58.9912 62.2882 59.0799 62.6438 59.0799C62.9994 59.0799 63.3551 58.7502 63.5543 58.6635C63.7536 58.5748 63.5993 58.116 63.2202 57.8518C62.8431 57.5897 63.2417 57.1289 63.398 57.3255C63.5544 57.5222 63.8865 57.6552 64.2636 57.1944C64.6407 56.7337 64.6856 57.3699 64.5528 57.6321C64.4199 57.8943 64.1307 58.2895 64.1307 58.6616C64.1307 59.0336 64.6407 58.4418 64.797 58.6404C64.9533 58.837 65.2191 58.8601 65.3519 58.6404C65.4848 58.4206 65.8404 58.6404 66.2175 58.6847C66.5946 58.729 66.4402 58.6635 66.4617 58.3126C66.4832 57.9617 66.3054 57.3043 66.196 56.9322C66.0846 56.5602 66.5965 56.4715 66.663 56.296C66.7294 56.1206 66.6415 55.924 66.7743 55.6386C66.9072 55.3533 66.575 55.201 66.2194 55.0468C65.8638 54.8925 66.2194 54.3007 66.3757 54.4549C66.5321 54.6091 67.042 55.0256 67.2198 55.3976C67.3976 55.7697 67.4641 56.2093 67.1749 56.6469C66.8857 57.0845 67.1299 57.8306 67.1299 57.8306C67.1964 58.2471 67.8861 59.0799 67.8861 59.1898C67.8861 59.2997 68.3296 59.2785 68.863 59.1686C69.3964 59.0587 69.6192 59.4308 69.9064 59.4751C70.1956 59.5195 70.1721 59.0375 70.4398 58.8389C70.7055 58.6423 71.4617 58.5093 71.9287 58.2914C72.3956 58.0716 72.4171 57.9617 72.8606 57.9405C73.3042 57.9193 73.4156 57.6552 73.7262 57.3699C74.0369 57.0845 74.9708 56.8436 75.3264 56.8436C75.682 56.8436 76.3268 56.5582 76.7254 56.5582C77.126 56.5582 77.8587 55.9452 78.0365 55.7466C78.2143 55.55 78.5249 55.3745 78.6812 55.2858C78.8376 55.1991 78.6363 54.7383 78.4155 54.5185C78.1928 54.2988 78.9704 53.7956 79.3045 53.73C79.6386 53.6645 79.5702 53.0071 79.6601 52.6562C79.75 52.3053 80.215 52.2186 80.4593 51.5168C80.7035 50.8151 80.5042 49.9379 80.3928 49.5002C80.2815 49.0626 80.7699 48.9739 81.2584 48.7541C81.7469 48.5344 81.9911 49.1918 82.1904 49.2149C82.3897 49.2361 82.546 48.5132 82.7687 48.3608C82.9915 48.2066 83.5014 48.6905 83.7242 48.6905C83.9469 48.6905 84.5468 48.143 84.7676 48.0774C84.9903 48.0119 86.2779 48.4939 86.6335 48.625C86.9891 48.7561 87.6554 48.7137 88.0559 48.4495C88.4565 48.1873 88.5659 46.7395 88.5229 46.4542C88.478 46.1688 88.1673 45.6001 88.1888 45.4247C88.2103 45.2492 88.6558 44.4164 88.6987 44.5263C88.7437 44.6362 88.943 45.2936 89.0758 45.7755C89.2087 46.2575 89.4529 47.1116 89.6307 47.3101C89.8085 47.5068 90.2755 49.1513 90.2521 49.4366C90.2306 49.7219 88.941 49.612 88.8082 49.612C88.6753 49.612 88.4076 49.8974 88.1204 50.0073C87.8312 50.1172 87.5421 50.0516 87.3643 50.0285C87.1865 50.0073 85.9653 49.1744 85.5882 49.1089C85.2111 49.0433 84.9668 49.1301 84.8555 49.2631C84.7441 49.3942 84.5898 49.4385 84.2556 49.4829C83.9215 49.5272 83.5229 49.988 83.3901 50.1403C83.2572 50.2945 82.1904 50.47 81.7234 50.4912C81.2564 50.5124 81.6355 50.9943 81.7234 51.2141C81.8133 51.4339 80.8344 52.7256 80.8579 52.7931C80.8793 52.8586 80.1017 53.8014 80.1017 54.239C80.1017 54.6766 79.7246 54.6998 79.369 54.8308C79.0134 54.9619 79.0349 54.8308 79.3241 55.334C79.6132 55.8372 79.1463 55.816 79.0583 56.1013C78.9704 56.3867 78.3022 56.7587 77.9251 56.8031C77.548 56.8474 77.5695 56.9785 77.081 57.1752C76.5925 57.3718 75.5492 57.4605 75.1271 57.4817C74.7051 57.5029 74.0603 58.008 73.7282 58.3145C73.3941 58.6211 72.085 58.8177 71.8622 58.8852C71.6395 58.9507 70.3519 59.6082 70.2405 59.959C70.1291 60.3099 70.0178 60.5066 69.8185 60.5297C69.6192 60.5509 68.1968 60.2232 67.8861 60.1788C67.5754 60.1345 65.643 59.6313 65.3988 59.6082C65.1546 59.587 64.3554 59.6949 64.1112 59.8279C63.867 59.959 64.0897 60.2444 64.5332 60.5297C64.9768 60.815 64.9103 60.8594 64.9338 60.4352C64.9553 60.0111 65.9107 60.4853 66.3328 60.4429C66.7548 60.3986 66.9326 60.5528 67.4426 61.056C67.9525 61.5592 67.3546 61.6267 66.8877 61.6267C66.4207 61.6267 65.7994 61.6055 65.8873 62.2185C65.9752 62.8316 67.042 62.1973 67.4191 62.2185C67.7962 62.2397 68.3081 63.0957 68.6403 63.0552C68.9744 63.0147 69.0838 63.8842 70.0178 64.1927C70.9498 64.4992 71.5066 64.3026 71.8837 64.1715C72.2608 64.0404 72.4836 63.9093 73.2827 63.9517C74.0818 63.996 74.1053 63.8418 74.4609 63.7319C74.8165 63.622 75.2385 63.5121 75.4163 63.4909C75.5941 63.4697 75.9497 62.7024 75.9947 63.2557C76.0396 63.811 76.5281 63.9498 76.8387 63.9729C77.1494 63.9941 77.038 64.1271 77.5949 64.3238C78.1498 64.5204 78.0619 64.2139 78.3061 63.6008C78.5503 62.9877 79.0622 63.381 79.0622 63.381C79.5507 63.381 78.9059 64.0597 78.8395 64.7171C78.7731 65.3745 79.5957 65.3745 79.8829 65.3957C80.172 65.4169 79.6171 66.0743 79.0388 66.2497C78.4604 66.4252 78.2826 66.3153 78.2162 66.5794C78.1498 66.8416 77.5285 66.7548 77.2158 66.8647C76.9052 66.9746 76.3718 67.3698 76.0162 67.5434C75.6605 67.7188 74.5722 68.1564 74.0173 68.463C73.4624 68.7695 73.3511 68.9237 73.5074 69.317C73.6637 69.7122 73.0853 69.6023 72.6184 69.8221C72.1514 70.0419 71.4402 70.7205 71.0865 70.9827C70.7309 71.2449 70.8208 71.4878 71.0865 71.991C71.3523 72.4961 72.3976 71.9467 72.974 71.6845C73.5523 71.4223 74.4394 71.9042 74.7286 72.365C75.0177 72.8258 75.5726 72.847 76.106 73.2634C76.6394 73.6798 76.618 73.701 77.1494 73.3502C77.6828 72.9993 78.437 73.8109 78.6383 73.9208C78.8376 74.0307 79.1267 75.1701 79.5273 75.6521C79.9278 76.134 78.861 76.3307 78.7946 76.7914C78.7281 77.2522 78.9274 77.3178 78.9939 77.7785C79.0603 78.2393 78.1283 78.3492 77.9056 78.9179C77.6828 79.4886 78.861 80.2771 79.2615 80.2983C79.6621 80.3195 79.7285 80.4082 79.9063 80.7802C80.0841 81.1523 80.9067 80.9345 81.5495 80.9557C82.1943 80.9769 82.1943 80.9345 82.4151 80.7147C82.6378 80.4949 83.2142 80.6048 83.6148 80.5836C84.0153 80.5624 83.859 80.2115 84.0368 79.8818C84.2146 79.5522 84.7031 79.6197 84.9473 79.2244C85.1915 78.8292 84.8594 78.8948 85.4807 78.3916C86.102 77.8865 86.0591 77.5587 86.0591 77.5587C86.2369 77.1307 88.1243 76.5524 88.7241 76.136C89.324 75.7195 89.4569 76.7066 90.1681 76.749C90.8793 76.7934 90.635 75.9605 91.1001 75.6096C91.567 75.2588 92.1884 74.8211 92.1884 74.8211C92.1884 74.8211 92.5225 74.5358 92.7218 74.0982C92.9211 73.6605 92.9211 73.6162 93.4779 73.221C94.0328 72.8258 95.7444 74.1849 96.4107 74.2081C97.077 74.2293 96.9226 73.7704 97.2548 73.6605C97.5889 73.5507 97.921 73.7704 98.4329 73.8803C98.9429 73.9902 99.1656 73.6393 99.4548 73.5738C99.744 73.5082 99.7889 73.5082 100.188 73.2017C100.588 72.8952 99.6991 72.0835 99.6326 71.8869C99.5662 71.6902 99.6541 71.3606 100.033 71.1639C100.41 70.9673 100.322 70.7263 100.145 70.0901C99.9667 69.4539 97.8116 69.6949 97.3017 69.9802C96.7917 70.2655 96.3247 70.2655 96.0805 70.2424C95.8363 70.2212 95.2579 69.4539 94.9472 69.6293C94.6366 69.8048 93.7925 70.8998 93.1927 71.1851C92.5928 71.4705 92.6378 71.1196 92.3486 70.68C92.0594 70.2424 90.1935 68.2027 89.9043 67.875C89.6151 67.5472 89.1266 66.8223 89.0602 66.7124C88.9938 66.6025 88.4389 65.814 88.4154 65.5287C88.3939 65.2434 87.9934 64.3893 87.7707 64.1927C87.5479 63.996 86.8152 63.5141 86.5925 63.6008C86.3697 63.6895 87.3037 64.3026 87.6143 64.5204C87.925 64.7402 87.5694 65.9663 87.8586 66.1861C88.1478 66.4059 88.392 66.7124 88.392 66.7124C88.392 66.7124 89.9688 68.7059 89.9922 68.7733C90.0137 68.8389 91.3697 70.5933 91.7468 71.0097C92.1239 71.4261 92.079 71.3394 92.1024 71.6016C92.1239 71.8638 91.5026 71.7558 91.0805 71.3162C90.6585 70.8786 90.0801 71.162 89.2595 70.8343C88.4369 70.5046 89.5702 69.9571 89.8379 69.6062C90.1036 69.2553 89.5487 68.7078 89.1716 68.4668C88.7945 68.2258 88.8609 68.1603 88.6597 67.8094C88.4604 67.4585 88.1048 67.4797 87.882 67.393C87.6593 67.3043 87.3936 67.4142 87.4151 67.1963C87.4365 66.9765 87.2373 66.7356 86.9715 66.7144C86.7058 66.6932 86.7058 66.0782 86.4616 65.9914C86.2173 65.9046 85.7054 66.6932 85.4846 66.5621C85.2619 66.431 85.5296 66.0569 85.9731 65.708C86.4166 65.3571 86.1294 65.0949 86.018 64.8539C85.9067 64.613 85.6175 64.7653 85.7074 65.0737C85.7953 65.3803 85.5081 65.4689 85.1955 65.6868C84.8848 65.9066 84.6406 65.2048 84.7734 64.8327C84.9063 64.4607 83.9743 64.7672 83.7965 64.5474C83.6187 64.3276 83.1751 64.2177 83.2865 64.5918C83.3979 64.9638 82.6203 64.5918 82.376 64.5918C82.1318 64.5918 82.0204 64.0211 81.7762 63.8245C81.5319 63.6278 81.4655 64.3951 81.1314 64.4375C80.7973 64.4819 80.7543 63.7358 80.6214 63.3425C80.4886 62.9473 80.133 63.4524 79.7559 63.0359C79.3788 62.6195 80.0665 62.5308 80.1994 62.4653C80.3323 62.3997 80.8657 62.6195 80.977 62.5964C81.0884 62.5752 82.1982 63.4292 82.421 63.4292C82.6437 63.4292 82.4659 63.0572 82.6437 62.8374C82.8215 62.6176 82.5323 62.18 82.8 61.9602C83.0657 61.7404 83.8004 63.5603 84.154 63.5815C84.5096 63.6027 84.0212 62.8354 84.1091 62.4634C84.197 62.0913 84.9082 63.0996 85.0645 63.275C85.2209 63.4504 85.3752 63.034 85.6429 63.2538C85.9086 63.4736 86.2642 62.8586 86.487 62.7506C86.7097 62.6407 87.8644 63.8457 87.6651 63.5835C87.4659 63.3213 87.9309 62.4209 88.0208 62.2243C88.1087 62.0277 88.5542 61.8079 88.8648 61.8079C89.1755 61.8079 89.3084 61.4358 89.3084 61.216C89.3084 60.9962 89.7753 60.5374 89.9746 60.2964C90.1739 60.0554 89.8418 59.7046 89.8633 59.3093C89.8848 58.9141 90.129 59.506 90.3068 59.639C90.4846 59.7701 90.4182 60.121 90.596 60.4931C90.7738 60.8651 90.6624 60.9962 90.5295 61.216C90.3967 61.4358 89.9082 61.9621 89.9082 62.2243C89.9082 62.4865 89.6425 62.6407 89.2419 62.9029C88.8414 63.1651 88.7085 63.5815 88.7085 63.5815C89.9297 63.3618 90.553 62.3766 91.0414 61.565C91.5299 60.7533 91.6413 60.3812 91.864 60.0959C92.0868 59.8106 92.5967 59.1532 93.1966 58.9777C93.7964 58.8023 93.9293 58.276 94.2399 57.8596C94.5506 57.4431 95.4162 57.3332 95.973 57.0479C96.5279 56.7626 96.8386 57.5742 97.3505 57.553C97.8605 57.5318 98.0617 56.7414 98.2395 56.325C98.4173 55.9085 100.438 56.2151 101.239 56.0184C102.038 55.8218 101.594 55.2723 101.95 54.9234C102.306 54.5725 102.905 54.1773 103.306 53.9363C103.706 53.6953 104.105 53.7397 104.594 53.8052C105.082 53.8708 105.148 53.169 105.438 52.7757C105.727 52.3805 106.125 52.0296 106.393 51.7462C106.659 51.4609 108.947 51.4609 109.281 51.5052C109.615 51.5496 109.504 51.7906 110.037 51.966C110.57 52.1414 110.793 51.1544 110.969 50.4102C111.147 49.6641 111.08 49.6641 111.168 49.1609C111.258 48.6558 110.903 48.7002 110.701 48.2413C110.502 47.7806 110.791 45.8295 110.791 45.8295C112.458 45.523 112.991 44.9755 113.589 44.6901C114.189 44.4048 114.011 43.1555 114.011 43.1555C114.011 43.1555 114.101 43.1999 115.277 43.2211C116.454 43.2423 116.076 43.1112 116.878 42.849C117.677 42.5868 119.5 42.7179 120.187 42.6948C120.713 42.6774 120.774 41.4783 120.811 40.684H39.2579C39.4357 40.8305 39.5706 41.1004 39.8285 41.191Z" fill="#FFD500"/>
<path d="M34.5335 40.6704H34.2698C34.346 40.7186 34.4378 40.7128 34.5335 40.6704Z" fill="#FFD500"/>
<defs>
<linearGradient id="paint0_linear_120_2" x1="139.307" y1="23.0357" x2="139.307" y2="59.8874" gradientUnits="userSpaceOnUse">
<stop offset="0.486078" stop-color="#0066CC"/>
<stop offset="0.486078" stop-color="#FFD839"/>
</linearGradient>
<linearGradient id="paint1_linear_120_2" x1="165.396" y1="23.0347" x2="165.396" y2="59.947" gradientUnits="userSpaceOnUse">
<stop offset="0.486078" stop-color="#0066CC"/>
<stop offset="0.486078" stop-color="#FFD839"/>
</linearGradient>
<linearGradient id="paint2_linear_120_2" x1="184.571" y1="23.0347" x2="184.571" y2="59.947" gradientUnits="userSpaceOnUse">
<stop offset="0.486078" stop-color="#0066CC"/>
<stop offset="0.486078" stop-color="#FFD839"/>
</linearGradient>
<linearGradient id="paint3_linear_120_2" x1="214.867" y1="22.0176" x2="214.867" y2="59.9603" gradientUnits="userSpaceOnUse">
<stop offset="0.486078" stop-color="#0066CC"/>
<stop offset="0.486078" stop-color="#FFD839"/>
</linearGradient>
<linearGradient id="paint4_linear_120_2" x1="238.28" y1="23.0347" x2="238.28" y2="59.947" gradientUnits="userSpaceOnUse">
<stop offset="0.486078" stop-color="#0066CC"/>
<stop offset="0.486078" stop-color="#FFD839"/>
</linearGradient>
<linearGradient id="paint5_linear_120_2" x1="259.959" y1="23.0347" x2="259.959" y2="59.947" gradientUnits="userSpaceOnUse">
<stop offset="0.486078" stop-color="#0066CC"/>
<stop offset="0.486078" stop-color="#FFD839"/>
</linearGradient>
<linearGradient id="paint6_linear_120_2" x1="295.312" y1="24.0347" x2="295.312" y2="60.947" gradientUnits="userSpaceOnUse">
<stop offset="0.486078" stop-color="#0066CC"/>
<stop offset="0.486078" stop-color="#FFD839"/>
</linearGradient>
<linearGradient id="paint7_linear_120_2" x1="321.685" y1="24.0347" x2="321.685" y2="60.947" gradientUnits="userSpaceOnUse">
<stop offset="0.486078" stop-color="#0066CC"/>
<stop offset="0.486078" stop-color="#FFD839"/>
</linearGradient>
<linearGradient id="paint8_linear_120_2" x1="341.094" y1="24.0347" x2="341.094" y2="60.947" gradientUnits="userSpaceOnUse">
<stop offset="0.486078" stop-color="#0066CC"/>
<stop offset="0.486078" stop-color="#FFD839"/>
</linearGradient>
<linearGradient id="paint9_linear_120_2" x1="360.24" y1="24.0347" x2="360.24" y2="60.947" gradientUnits="userSpaceOnUse">
<stop offset="0.486078" stop-color="#0066CC"/>
<stop offset="0.486078" stop-color="#FFD839"/>
</linearGradient>
<linearGradient id="paint10_linear_120_2" x1="385.111" y1="24.0347" x2="385.111" y2="60.947" gradientUnits="userSpaceOnUse">
<stop offset="0.486078" stop-color="#0066CC"/>
<stop offset="0.486078" stop-color="#FFD839"/>
</linearGradient>
<linearGradient id="paint11_linear_120_2" x1="404.425" y1="24.0357" x2="404.425" y2="60.8874" gradientUnits="userSpaceOnUse">
<stop offset="0.486078" stop-color="#0066CC"/>
<stop offset="0.486078" stop-color="#FFD839"/>
</linearGradient>
<linearGradient id="paint12_linear_120_2" x1="429.627" y1="23.0194" x2="429.627" y2="60.8511" gradientUnits="userSpaceOnUse">
<stop offset="0.486078" stop-color="#0066CC"/>
<stop offset="0.486078" stop-color="#FFD839"/>
</linearGradient>
</defs>
</svg>
