<svg aria-hidden="true" style="position: absolute; width: 0; height: 0; overflow: hidden;" version="1.1" xmlns="http://www.w3.org/2000/svg" xmlns:xlink="http://www.w3.org/1999/xlink">
<defs>
<symbol id="icon-corner-vector" viewBox="0 0 35 32">
<path fill="#545a82" d="M35.069 25.389l-8.852 6.26v-6.26h8.852z"></path>
<path fill="#fcca0c" opacity="0.6" d="M35.068 0.087h-35.068v25.302h35.068v-25.302z"></path>
</symbol>
<symbol id="icon-whatsapp" viewBox="0 0 32 32">
<path d="M23.655 19.145c-0.414-0.205-2.345-1.231-2.69-1.368s-0.621-0.205-0.897 0.137c-0.276 0.41-1.103 1.231-1.31 1.504-0.276 0.273-0.483 0.273-0.897 0.068s-1.655-0.684-3.172-2.12c-1.172-1.094-1.931-2.462-2.138-2.872s0-0.615 0.207-0.821c0.207-0.205 0.414-0.479 0.621-0.684s0.276-0.41 0.414-0.615c0.138-0.274 0.069-0.479 0-0.684s-0.828-2.188-1.103-3.008c-0.276-0.821-0.621-0.684-0.897-0.684-0.207 0-0.483-0.068-0.759-0.068s-0.69 0.068-1.103 0.479-1.448 1.299-1.517 3.282c-0.069 1.983 1.31 3.898 1.517 4.171s2.621 4.513 6.621 6.291 4.069 1.231 4.759 1.162c0.759-0.068 2.414-0.889 2.759-1.778s0.414-1.709 0.276-1.915c0-0.137-0.276-0.273-0.69-0.479zM16.276 28.581c-2.69 0-5.103-0.82-7.172-2.12l-5.035 1.573 1.655-4.786c-1.586-2.188-2.483-4.786-2.483-7.658 0-7.18 5.862-12.992 13.103-12.992s13.103 5.812 13.103 12.992c-0.069 7.179-5.931 12.991-13.172 12.991zM16.276 0c-8.621 0-15.724 6.974-15.724 15.59 0 2.94 0.828 5.675 2.276 8.068l-2.828 8.342 8.69-2.735c2.276 1.231 4.828 1.915 7.586 1.915 8.69 0 15.724-6.974 15.724-15.59s-7.035-15.59-15.724-15.59z"></path>
</symbol>
<symbol id="icon-phone" viewBox="0 0 30 32">
<path d="M27.888 23.069c-0.913-0.72-1.926-1.441-2.94-2.161-1.926-1.441-3.751-1.543-5.272 0.72-0.811 1.235-2.028 1.338-3.244 0.72-3.346-1.543-5.88-3.91-7.401-7.305-0.71-1.543-0.608-2.881 0.912-4.013 0.811-0.617 1.622-1.235 1.622-2.469-0.101-1.646-3.954-6.997-5.475-7.614-0.608-0.206-1.217-0.206-1.926 0-3.549 1.235-5.069 4.219-3.65 7.82 4.258 10.598 11.761 18.006 22.001 22.533 0.608 0.206 1.217 0.309 1.622 0.412 2.332 0 5.069-2.264 5.88-4.527 0.811-2.161-0.811-3.087-2.129-4.116z"></path>
<path d="M16.33 1.668c7.503 1.132 11.051 4.836 11.964 12.553 0.101 0.72-0.203 1.749 0.811 1.852 1.014 0 0.811-1.029 0.811-1.749 0.101-7.202-6.185-13.993-13.383-14.199-0.507 0.103-1.724-0.412-1.724 0.823 0 0.72 0.912 0.617 1.521 0.72z"></path>
<path d="M17.849 3.828c-0.71-0.103-1.724-0.412-1.825 0.617-0.203 1.029 0.912 0.926 1.622 1.132 4.664 1.029 6.286 2.778 6.996 7.408 0.101 0.72-0.101 1.749 1.014 1.543 0.811-0.103 0.507-1.029 0.608-1.543 0-4.527-3.751-8.643-8.415-9.157z"></path>
<path d="M18.255 7.43c-0.507 0-0.913 0.103-1.115 0.617-0.304 0.823 0.304 0.926 0.913 1.029 1.926 0.309 2.94 1.441 3.143 3.395 0.101 0.514 0.406 0.926 0.913 0.926 0.71-0.103 0.71-0.72 0.71-1.338-0.101-2.161-2.535-4.63-4.562-4.63z"></path>
</symbol>
<symbol id="icon-skype" viewBox="0 0 32 32">
<path d="M30.67 18.346c0.14-0.77 0.14-1.54 0.14-2.381 0-8.193-6.652-14.845-14.845-14.845-0.77 0-1.54 0.070-2.311 0.21-1.4-0.84-3.011-1.33-4.691-1.33-4.972 0-8.963 3.991-8.963 8.963 0 1.751 0.49 3.361 1.33 4.691-0.14 0.77-0.21 1.541-0.21 2.311 0 8.263 6.652 14.845 14.845 14.845 0.77 0 1.541-0.070 2.311-0.21 1.4 0.84 3.011 1.33 4.691 1.33 4.972 0 8.963-3.991 8.963-8.963 0.070-1.681-0.42-3.291-1.26-4.622zM23.037 22.757c-0.63 0.91-1.54 1.611-2.731 2.101s-2.661 0.77-4.271 0.77c-1.961 0-3.641-0.35-4.902-1.050-0.91-0.49-1.681-1.19-2.241-2.031s-0.84-1.681-0.84-2.451c0-0.49 0.21-0.91 0.56-1.19 0.35-0.35 0.84-0.49 1.33-0.49 0.42 0 0.84 0.14 1.12 0.42s0.56 0.63 0.77 1.12c0.28 0.56 0.56 1.050 0.84 1.47s0.7 0.7 1.19 0.98 1.19 0.35 2.101 0.35c1.19 0 2.171-0.28 2.871-0.77 0.77-0.49 1.12-1.12 1.12-1.891 0-0.63-0.21-1.050-0.56-1.471-0.42-0.35-0.91-0.63-1.541-0.84s-1.47-0.42-2.591-0.63c-1.47-0.28-2.661-0.7-3.641-1.12s-1.751-0.98-2.311-1.751c-0.56-0.7-0.84-1.611-0.84-2.731 0-1.050 0.28-1.961 0.91-2.731s1.47-1.4 2.661-1.821c1.12-0.42 2.451-0.63 3.991-0.63 1.26 0 2.311 0.14 3.221 0.42s1.681 0.63 2.241 1.12c0.63 0.49 1.050 0.98 1.33 1.47s0.42 1.050 0.42 1.54c0 0.49-0.21 0.91-0.56 1.26s-0.77 0.56-1.33 0.56c-0.49 0-0.84-0.14-1.12-0.35s-0.49-0.56-0.77-1.050c-0.35-0.7-0.77-1.26-1.26-1.611s-1.26-0.56-2.381-0.56c-1.050 0-1.891 0.21-2.521 0.63s-0.91 0.91-0.91 1.47c0 0.35 0.070 0.63 0.28 0.91s0.49 0.49 0.91 0.7c0.35 0.21 0.77 0.35 1.12 0.42 0.42 0.14 1.050 0.28 1.961 0.49 1.12 0.21 2.171 0.49 3.081 0.84 0.91 0.28 1.681 0.63 2.311 1.050s1.19 0.98 1.54 1.611c0.35 0.63 0.56 1.471 0.56 2.381-0.14 1.12-0.49 2.171-1.12 3.081z"></path>
<symbol id="icon-footer-logo" viewBox="0 0 178 32">
<path fill="#000" style="fill: var(--color1, #000)" d="M55.089 9.342h3.834c1.529 0 2.67 0.275 3.446 0.803 0.776 0.551 1.164 1.491 1.164 2.867 0 0.941-0.114 1.675-0.365 2.225s-0.685 0.986-1.346 1.285l1.894 6.767h-3.149l-1.529-6.263h-0.867v6.263h-3.081v-13.947zM59.014 15.261c0.616 0 1.050-0.161 1.301-0.482s0.365-0.826 0.365-1.468-0.114-1.101-0.342-1.422c-0.228-0.321-0.616-0.482-1.187-0.482h-1.004v3.854h0.868z"></path>
<path fill="#000" style="fill: var(--color1, #000)" d="M65.381 9.342h6.253v2.11h-3.195v3.464h2.419v2.133h-2.419v4.175h3.218v2.087h-6.276v-13.97z"></path>
<path fill="#000" style="fill: var(--color1, #000)" d="M73.231 9.342h3.286l1.529 8.121 1.643-8.121h3.172l0.251 13.97h-2.168l-0.251-9.291-1.62 9.291h-1.94l-1.734-9.382-0.205 9.36h-2.214l0.251-13.947z"></path>
<path fill="#000" style="fill: var(--color1, #000)" d="M85.897 22.138c-0.639-0.78-0.959-1.927-0.959-3.441v-5.184c0-1.514 0.32-2.661 0.959-3.418s1.711-1.147 3.218-1.147c1.506 0 2.579 0.39 3.24 1.147 0.639 0.78 0.958 1.904 0.958 3.418v5.184c0 1.514-0.319 2.661-0.958 3.441s-1.734 1.17-3.24 1.17c-1.506 0-2.579-0.39-3.218-1.17zM89.959 20.669c0.137-0.298 0.205-0.688 0.205-1.193v-6.721c0-0.528-0.069-0.918-0.205-1.216s-0.434-0.436-0.867-0.436c-0.411 0-0.685 0.138-0.822 0.436s-0.205 0.688-0.205 1.193v6.721c0 0.505 0.069 0.895 0.183 1.193 0.137 0.298 0.411 0.436 0.845 0.436 0.433 0.023 0.73-0.115 0.867-0.413z"></path>
<path fill="#000" style="fill: var(--color1, #000)" d="M96.281 11.636h-2.099v-2.294h7.257v2.294h-2.077v11.676h-3.081v-11.676z"></path>
<path fill="#000" style="fill: var(--color1, #000)" d="M108.946 21.225v2.087h-6.207v-13.97h6.162v2.088h-3.172v3.487h2.419v2.133h-2.419v4.175h3.218z"></path>
<path fill="#000" style="fill: var(--color1, #000)" d="M116.719 9.737h3.081v5.643h2.145v-5.643h3.081v13.97h-3.081v-6.125h-2.145v6.102h-3.081v-13.947z"></path>
<path fill="#000" style="fill: var(--color1, #000)" d="M127.125 9.737h6.253v2.11h-3.172v3.464h2.419v2.133h-2.419v4.175h3.218v2.087h-6.276v-13.97h-0.023z"></path>
<path fill="#000" style="fill: var(--color1, #000)" d="M134.793 9.737h3.081v11.883h3.195v2.087h-6.276v-13.97z"></path>
<path fill="#000" style="fill: var(--color1, #000)" d="M142.392 9.737h4.655c1.232 0 2.145 0.344 2.739 1.032 0.616 0.688 0.913 1.698 0.913 3.005 0 1.491-0.342 2.523-1.050 3.12-0.707 0.573-1.689 0.872-2.967 0.872h-1.233v5.941h-3.081v-13.97h0.023zM146.5 15.61c0.548 0 0.89-0.138 1.073-0.436s0.274-0.78 0.274-1.445c0-0.619-0.091-1.078-0.251-1.376-0.183-0.298-0.548-0.459-1.095-0.459h-1.004v3.716h1.004z"></path>
<path fill="#000" style="fill: var(--color1, #000)" d="M152.182 9.737h6.253v2.11h-3.172v3.464h2.419v2.133h-2.419v4.175h3.218v2.087h-6.276v-13.97h-0.023z"></path>
<path fill="#000" style="fill: var(--color1, #000)" d="M159.85 9.737h3.834c1.529 0 2.67 0.275 3.446 0.803 0.776 0.551 1.164 1.491 1.164 2.867 0 0.941-0.114 1.675-0.365 2.225s-0.684 0.986-1.346 1.285l1.894 6.767h-3.172l-1.529-6.263h-0.867v6.263h-3.081v-13.947h0.023zM163.775 15.656c0.616 0 1.050-0.161 1.301-0.482s0.365-0.826 0.365-1.468-0.114-1.101-0.342-1.422c-0.228-0.321-0.616-0.482-1.187-0.482h-1.004v3.854h0.867z"></path>
<path fill="#000" style="fill: var(--color1, #000)" d="M170.804 22.624c-0.639-0.711-0.981-1.835-1.027-3.372l2.624-0.39c0 0.895 0.114 1.514 0.32 1.904s0.502 0.573 0.89 0.573c0.525 0 0.776-0.344 0.776-1.009 0-0.551-0.114-1.009-0.365-1.399s-0.639-0.803-1.164-1.262l-1.21-1.055c-0.593-0.505-1.050-1.032-1.369-1.606s-0.479-1.239-0.479-2.019c0-1.17 0.343-2.065 1.027-2.707s1.643-0.941 2.852-0.941c1.324 0 2.214 0.39 2.693 1.147 0.479 0.78 0.73 1.698 0.753 2.799l-2.647 0.321c-0.023-0.734-0.091-1.239-0.205-1.56s-0.342-0.482-0.708-0.482c-0.274 0-0.456 0.115-0.616 0.344-0.137 0.229-0.205 0.482-0.205 0.757 0 0.482 0.114 0.872 0.32 1.193s0.548 0.688 1.027 1.101l1.141 1.009c0.685 0.596 1.21 1.216 1.598 1.858 0.388 0.665 0.57 1.422 0.57 2.317 0 0.665-0.16 1.239-0.456 1.789-0.297 0.528-0.73 0.963-1.278 1.262-0.548 0.321-1.187 0.459-1.894 0.459-1.346 0.046-2.328-0.321-2.967-1.032z"></path>
<path fill="#005bbb" style="fill: var(--color2, #005bbb)" d="M47.895 15.017c-0.072 0.043-0.252-0.216-0.297-0.398s-0.158-0.39-0.158-0.64c0-0.251-0.158-0.13-0.263-0.087s-0.123-0.139-0.264-0.19c-0.14-0.052 0.018-0.2 0.149-0.329s0.115-0.347 0.141-0.416c0.026-0.069 0.211-0.061 0.325-0.069s0.202-0.061 0.341-0.182c0.139-0.121-0.324-0.19-0.542-0.165s-0.342 0.087-0.439-0.303 0.359-0.251 0.562-0.268c0.201-0.018 0.158-0.424 0.167-0.528s0.114-0.286 0.229-0.537c0.114-0.251-0.193-0.494-0.264-0.615s-0.079-0.234 0.018-0.277 0.123-0.268 0.079-0.363c-0.044-0.095-0.219-0.078-0.272 0.052s-0.351 0.182-0.702 0.173c-0.351-0.008-0.509-0.407-0.588-0.502s-0.57-0.069-0.772-0.078c-0.202-0.008-0.175-0.277-0.281-0.321s-0.255 0.173-0.368 0.208c-0.114 0.034-0.184 0-0.229-0.121s-0.342-0.104-0.491-0.104c-0.149 0-0.211-0.19-0.325-0.355s-0.351 0.104-0.439 0.121c-0.088 0.018-0.079 0.043-0.359-0.216s-0.378-0.13-0.422-0.087c-0.044 0.043-0.167 0.242-0.062 0.355s-0.184 0.182-0.263 0.26c-0.079 0.078-0.334-0.363-0.395-0.433s-0.193-0.139-0.508-0.2c-0.316-0.061-0.307-0.45-0.342-0.606s-0.026-0.19-0.123-0.268c-0.096-0.078-0.404-0.337-0.518-0.433s-0.316 0.121-0.43 0.286c-0.114 0.165-0.114 0.104-0.456 0.156s-0.93 0.337-1.018 0.528c-0.088 0.19-0.245-0.156-0.438-0.216s-0.228 0.061-0.368 0.095c-0.14 0.034-0.255-0.156-0.333-0.242s-0.175-0.26-0.456-0.329c-0.281-0.069-0.763 0.363-0.912 0.433s-0.263-0.087-0.316-0.2c-0.052-0.113-0.149-0.295-0.333-0.468s-0.132-0.485-0.008-0.624c0.123-0.139 0.008-0.363-0.026-0.485s-0.123-0.303-0.228-0.372c-0.105-0.069-0.167-0.416-0.193-0.519s-0.386-0.095-0.5-0.139c-0.114-0.043 0.036-0.26-0.299-0.554s-0.553 0.139-0.685 0.216c-0.132 0.078-0.307-0.095-0.474-0.208s-0.289-0.008-0.465 0.043c-0.175 0.052-0.395-0.018-0.492-0.095s0.201-0.216 0.228-0.355c0.026-0.139-0.070-0.216-0.219-0.286s-0.009-0.277 0-0.459c0.009-0.182-0.211-0.312-0.289-0.519s0.272-0.208 0.658-0.216c0.386-0.008 0.096-0.372 0.018-0.571s-0.386-0.312-0.597-0.312c-0.211 0-0.167-0.329-0.281-0.597s0.088-0.321-0.062-0.433c-0.149-0.113-0.395-0.459-0.526-0.615s-0.553 0.225-0.658 0.295c-0.105 0.069-0.14-0.069-0.229-0.165s-0.395-0.052-0.588-0.052c-0.193 0-0.245 0.216-0.412 0.311s-0.342 0.095-0.526 0.173c-0.184 0.078-0.36-0.104-0.526-0.277s-0.544-0.043-0.685 0-0.044 0.303-0.052 0.433c-0.009 0.13-0.105 0.139-0.14 0.355s-0.492 0.321-0.623 0.398c-0.132 0.078-0.219-0.018-0.316-0.182s-1.027-0.026-1.229-0.086c-0.201-0.060-0.229 0.060-0.299 0.216s-0.605-0.043-0.746-0.043c-0.14 0-0.228 0.156-0.255 0.268s-0.018 0.173-0.175 0.208c-0.158 0.034-0.202 0.251-0.272 0.355s-0.158 0.485-0.299 0.788 0.079 0.693 0.14 0.848c0.062 0.156 0.018 0.424-0.036 0.701s-0.456-0.121-0.553-0.13c-0.096-0.008-0.237-0.494-0.57-0.736s-0.799 0.147-0.904 0.268c-0.105 0.121-0.316-0.173-0.404-0.26s-0.211 0.026-0.492 0.286c-0.281 0.26-0.272 0.078-0.342 0.008s-0.044-0.216-0.149-0.251-0.070-0.095-0.052-0.242c0.018-0.147-0.105-0.485-0.245-0.485s-0.184 0.095-0.289 0.277c-0.105 0.182-0.229 0.095-0.386 0.095s-0.158 0.312-0.351 0.381c-0.193 0.069-0.219-0.39-0.342-0.511s-0.272 0.095-0.482 0.147-0.062-0.347-0.412-0.407c-0.351-0.061-0.149 0.234-0.307 0.295s-0.377-0.182-0.535-0.19c-0.158-0.008-0.079 0.398-0.272 0.571s-0.272-0.615-0.421-0.684c-0.149-0.069-0.448 0.095-0.614 0.104s-0.325-0.321-0.325-0.321c0 0-0.008-0.347-0.096-0.459s-0.518 0.104-0.623 0.139-0.421-0.234-0.597-0.242c-0.175-0.008-0.492-0.087-0.597-0.087s-0.201-0.087-0.272-0.165c-0.070-0.078-0.201-0.087-0.307-0.069s-0.377-0.225-0.43-0.277-0.193-0.052-0.307-0.052c-0.114 0-0.184-0.104-0.36-0.139s-0.351 0.069-0.623 0.087c-0.272 0.018-0.632-0.225-0.86-0.286s-0.597 0.234-0.781 0.268c-0.184 0.035-0.641-0.121-0.983-0.121s-0.526 0.511-0.623 0.606-0.597 0.416-0.746 0.45c-0.149 0.035-0.456-0.182-0.702-0.069s-0.167 0.606-0.053 0.831c0.114 0.225-0.096 0.242-0.211 0.329s0.167 0.337 0.307 0.511c0.14 0.173 0.228 0.459 0.211 0.762s0.579 0.65 0.623 0.797c0.044 0.147-0.421 0.069-0.509 0.156s0.035 0.234 0.201 0.39c0.167 0.156-0.096 0.693-0.175 0.987s-0.562 0.182-0.711 0.199c-0.149 0.018-0.395 0.182-0.492 0.355s-0.377 0.216-0.597 0.329-0.325 0.398-0.395 0.485c-0.070 0.087-0.544 0.58-0.658 0.666s-0.605 0.814-0.895 1.126c-0.289 0.312-0.079 0.398-0.009 0.615s-0.158 0.589-0.193 0.874c-0.035 0.286 0.201 0.347 0.351 0.424s0.044 0.225 0.044 0.398c0 0.173-0.228-0.216-0.36-0.251s-0.097-0.13-0.342-0.216c-0.245-0.087-0.184 0.39-0.272 0.433s-0.245 0.139-0.211 0.277c0.036 0.139-0.175 0.121-0.281 0.234s-0.088 0.529-0.114 0.632-0.438 0.268-0.632 0.563c-0.193 0.295 0.079 0.39 0.237 0.468s0.088 0.147 0.184 0.337c0.097 0.19 0.307 0.355 0.404 0.407s0.149 0.246 0.245 0.446c0.033 0.068 0.116 0.069 0.214 0.145h11.133c0.004-0.076 0.005-0.22 0.021-0.292 0.035-0.156 0.29 0.141 0.465 0.24s0.245-0.12 0.316-0.154c0.070-0.035 0.123 0.011 0.219 0.161 0.010 0.015 0.021 0.044 0.033 0.044h0.104c0.097-0.076 0.207-0.181 0.258-0.248 0.079-0.104 0.114-0.058 0.229-0.050s0.237-0.142 0.333-0.219c0.096-0.078 0-0.002 0.193 0.155s0.316-0.001 0.509-0.001c0.193 0 0.201 0.272 0.299 0.319 0.017 0.008 0.032-0.031 0.046 0.045h32.213c0.005-0.076 0.008-0.193 0.017-0.24 0.035-0.199-0.018-0.491 0.156-0.612 0.173-0.118 0.072-0.263 0-0.22z"></path>
<path fill="#ffd500" style="fill: var(--color3, #ffd500)" d="M1.861 16.134c0.114 0.043-0.052 0.251-0.149 0.485s0.114 0.234 0.228 0.078 0.123-0.156 0.272-0.156c0.149 0 0.193-0.165 0.211-0.347s0.299-0.008 0.465 0.225c0.167 0.234 0.518 0.321 0.755 0.407s0.605-0.018 0.693 0.147c0.088 0.165 0.404-0.087 0.509 0.026s0.299 0.104 0.377 0.104c0.079 0 0.167 0.173 0.299 0.19s0.272-0.026 0.412-0.052c0.14-0.026 0.412-0.035 0.553 0.008s0.404 0.502 0.553 0.58c0.149 0.078 0.114 0.321 0.272 0.407s0.711-0.485 0.763-0.624c0.053-0.139 1.088-0.156 1.36-0.104s0.43-0.035 0.623-0.121c0.193-0.087 0.43-0.034 0.693-0.13s0.351-0.476 0.456-0.632c0.105-0.156 0.711-0.13 0.825-0.121s0.036-0.303 0.053-0.372c0.018-0.069 0.281 0.147 0.351 0.147 0.038 0 0.045-0.099 0.049-0.214h-11.138c0.189 0.049 0.439 0.040 0.514 0.069z"></path>
<path fill="#ffd500" style="fill: var(--color3, #ffd500)" d="M15.735 16.273c0.123 0.043 0.105 0.043 0.167 0.19s0.272 0.286 0.439 0.329c0.167 0.043 0.281-0.087 0.325 0s-0.096 0.173-0.018 0.257c0.079 0.084 0.088 0.072 0.219 0.15s0.132 0.008 0.237-0.095c0.105-0.104 0.333-0.034 0.544 0s0.237 0.268 0.307 0.416c0.070 0.147 0.149 0.216 0.299 0.39s0.245-0.156 0.395-0.19c0.149-0.034 0.237 0.355 0.316 0.39s0.105 0.182 0.009 0.242c-0.096 0.061-0.105 0.104-0.026 0.251s0.070 0.095-0.070 0.19-0.018 0.355-0.044 0.416c-0.026 0.061-0.079 0.251-0.184 0.442s0.422 0.459 0.544 0.545c0.123 0.087 0.123 0.268 0.219 0.303s0.167-0.069 0.211-0.182c0.044-0.113 0.333 0.043 0.307 0.199s-0.123 0.363-0.044 0.398c0.079 0.034-0.018 0.156-0.175 0.286s0.132 0.225 0.237 0.312c0.105 0.087-0.052 0.173-0.105 0.286s0.211 0.121 0.325 0.251c0.114 0.13 0.289 0.156 0.465 0.156s0.316 0.476 0.368 0.529c0.052 0.052 0 0.242-0.132 0.321s-0.062 0.19 0.070 0.286-0.079 0.13-0.211 0.26c-0.132 0.13 0.43 0.372 0.553 0.545s-0.263 0.069-0.386 0.069c-0.123 0-0.14 0.052-0.229 0.208s-0.255-0.494-0.325-0.494-0.219 0.104-0.316 0.225c-0.096 0.121-0.167-0.104-0.245-0.104s-0.114-0.225-0.184-0.26c-0.070-0.035-0.149 0.052-0.201 0.156s-0.14-0.043-0.211-0.043-0.175 0.139-0.281 0.182c-0.105 0.043-0.105-0.45-0.14-0.529s-0.272 0.035-0.36 0.147c-0.088 0.113-0.228 0.173-0.368 0.234s-0.096 0.355-0.088 0.563 0.325 0.355 0.377 0.476c0.052 0.121-0.052 0.19-0.158 0.277s-0.026 0.2-0.035 0.337c-0.008 0.139-0.342 0.139-0.597 0.225s-0.132 0.321-0.114 0.554c0.018 0.234-0.562 0.485-0.693 0.632s0 0.416-0.088 0.58-0.482 0-0.632 0.069c-0.149 0.069-0.132 0.156 0 0.242s0.070 0.173 0.062 0.416c-0.009 0.242 0.755 0.407 0.966 0.485s0.351 0.026 0.412-0.19c0.062-0.216 0.36-0.052 0.456-0.069s0.114-0.113 0.167-0.19c0.052-0.078 0.255 0 0.421-0.026s0.184-0.147 0.316-0.268c0.132-0.121 0.316 0 0.368 0.052s0.412 0.113 0.482 0.139c0.070 0.026 0.175 0.069 0.141 0.286s0.052 0.329 0.255 0.381 0.123-0.173 0.184-0.545c0.062-0.372-0.105-0.303-0.228-0.381s0-0.216 0.062-0.347-0.175-0.225-0.281-0.329c-0.105-0.104 0.070-0.139 0.105-0.225s0.070-0.347 0.123-0.424c0.052-0.078 0.175 0.087 0.114 0.294s0.070 0.095 0.211 0.208c0.14 0.113 0.281-0.026 0.299-0.225s0.105-0.208 0.211-0.355c0.105-0.147 0.237-0.26 0.342-0.26s0.43-0.216 0.605-0.329c0.175-0.113 0.325-0.407 0.377-0.519s-0.228-0.347-0.333-0.442c-0.105-0.095-0.219-0.234-0.368-0.39s0.044-0.199 0.114-0.355c0.070-0.156 0.123 0.035 0.229 0.113s0.272 0.147 0.307 0.355c0.036 0.208 0.342 0.407 0.474 0.45s0.105-0.295 0.105-0.409c0-0.115 0.184-0.136 0.263-0.344s0.193-0.295 0.245-0.381c0.052-0.087-0.009-0.295 0-0.39s0.184-0.061 0.307-0.069c0.123-0.008 0.263-0.216 0.307-0.26s0.781-0.008 0.922-0.008c0.14 0 0.281-0.13 0.36-0.165s0.018-0.216-0.132-0.321c-0.149-0.104 0.009-0.286 0.070-0.208s0.193 0.13 0.342-0.052c0.149-0.182 0.167 0.069 0.114 0.173s-0.167 0.26-0.167 0.407c0 0.147 0.201-0.087 0.263-0.008s0.167 0.087 0.219 0c0.052-0.087 0.193 0 0.342 0.017s0.088-0.008 0.096-0.147c0.009-0.139-0.062-0.398-0.105-0.545s0.158-0.182 0.184-0.251c0.026-0.069-0.009-0.147 0.044-0.26s-0.079-0.173-0.219-0.234c-0.14-0.061 0-0.295 0.062-0.234s0.263 0.225 0.333 0.372c0.070 0.147 0.096 0.321-0.018 0.494s-0.018 0.468-0.018 0.468c0.026 0.165 0.299 0.494 0.299 0.537s0.175 0.035 0.386-0.008c0.211-0.043 0.299 0.104 0.412 0.121s0.105-0.173 0.211-0.251c0.105-0.078 0.404-0.13 0.588-0.216s0.193-0.13 0.368-0.139c0.175-0.008 0.219-0.113 0.342-0.225s0.492-0.208 0.632-0.208 0.395-0.113 0.553-0.113c0.158 0 0.448-0.242 0.518-0.321s0.193-0.147 0.255-0.182c0.062-0.034-0.018-0.216-0.105-0.303s0.219-0.286 0.351-0.311c0.132-0.026 0.105-0.286 0.14-0.424s0.219-0.173 0.316-0.45c0.096-0.277 0.018-0.624-0.026-0.797s0.149-0.208 0.342-0.295c0.193-0.087 0.289 0.173 0.368 0.182s0.14-0.277 0.228-0.337c0.088-0.061 0.289 0.13 0.377 0.13s0.325-0.216 0.412-0.242c0.088-0.026 0.597 0.165 0.737 0.216s0.404 0.035 0.562-0.069c0.158-0.104 0.201-0.676 0.184-0.788s-0.14-0.337-0.132-0.407c0.008-0.069 0.184-0.398 0.201-0.355s0.096 0.303 0.149 0.494c0.053 0.19 0.149 0.528 0.219 0.606s0.255 0.727 0.245 0.84c-0.008 0.113-0.518 0.069-0.57 0.069s-0.158 0.113-0.272 0.156c-0.114 0.043-0.228 0.017-0.299 0.008s-0.553-0.337-0.702-0.363c-0.149-0.026-0.245 0.008-0.289 0.061s-0.105 0.069-0.237 0.087c-0.132 0.017-0.289 0.2-0.342 0.26s-0.474 0.13-0.658 0.139-0.035 0.199 0 0.286c0.036 0.087-0.351 0.597-0.342 0.624s-0.299 0.398-0.299 0.571-0.149 0.182-0.289 0.234c-0.14 0.052-0.132 0-0.018 0.199s-0.070 0.19-0.105 0.303c-0.035 0.113-0.299 0.26-0.448 0.277s-0.14 0.069-0.333 0.147c-0.193 0.078-0.605 0.113-0.772 0.121s-0.421 0.208-0.553 0.329c-0.132 0.121-0.649 0.199-0.737 0.225s-0.597 0.286-0.641 0.424c-0.044 0.139-0.088 0.216-0.167 0.225s-0.641-0.121-0.763-0.139c-0.123-0.017-0.886-0.216-0.983-0.225s-0.412 0.034-0.509 0.087c-0.096 0.052-0.009 0.165 0.167 0.277s0.149 0.13 0.158-0.037c0.009-0.168 0.386 0.020 0.553 0.003s0.237 0.043 0.438 0.242c0.201 0.199-0.035 0.225-0.219 0.225s-0.43-0.008-0.395 0.234c0.035 0.242 0.456-0.008 0.605 0s0.351 0.347 0.482 0.331c0.132-0.016 0.175 0.328 0.544 0.449s0.588 0.043 0.737-0.008 0.237-0.104 0.553-0.087c0.316 0.017 0.325-0.043 0.465-0.087s0.307-0.087 0.377-0.095c0.070-0.008 0.211-0.311 0.229-0.093s0.211 0.274 0.333 0.283c0.123 0.008 0.079 0.061 0.299 0.139s0.184-0.043 0.281-0.286 0.299-0.087 0.299-0.087c0.193 0-0.062 0.268-0.088 0.528s0.299 0.26 0.412 0.268c0.114 0.008-0.105 0.268-0.333 0.337s-0.299 0.026-0.325 0.13c-0.026 0.104-0.272 0.069-0.395 0.113s-0.333 0.2-0.474 0.268c-0.141 0.069-0.57 0.242-0.79 0.363s-0.263 0.182-0.201 0.337c0.062 0.156-0.167 0.113-0.351 0.2s-0.465 0.355-0.605 0.459c-0.14 0.104-0.105 0.2 0 0.398s0.518-0.017 0.746-0.121c0.228-0.104 0.579 0.087 0.693 0.269s0.333 0.19 0.544 0.355 0.202 0.173 0.412 0.034c0.211-0.139 0.509 0.182 0.588 0.225s0.193 0.494 0.351 0.684c0.158 0.19-0.263 0.268-0.289 0.45s0.052 0.208 0.079 0.39c0.026 0.182-0.342 0.225-0.43 0.45s0.377 0.537 0.536 0.545c0.158 0.008 0.184 0.043 0.255 0.19s0.395 0.061 0.649 0.069c0.255 0.008 0.255-0.008 0.342-0.095s0.316-0.043 0.474-0.052c0.158-0.008 0.096-0.147 0.167-0.277s0.263-0.104 0.36-0.26c0.096-0.156-0.035-0.13 0.211-0.329s0.228-0.329 0.228-0.329c0.070-0.169 0.816-0.398 1.053-0.562s0.289 0.225 0.57 0.242c0.281 0.018 0.184-0.311 0.368-0.45s0.43-0.311 0.43-0.311 0.132-0.113 0.211-0.286c0.079-0.173 0.079-0.19 0.299-0.347s0.895 0.381 1.159 0.39c0.263 0.008 0.202-0.173 0.333-0.216s0.263 0.043 0.465 0.087c0.201 0.043 0.289-0.095 0.404-0.121s0.132-0.026 0.29-0.147c0.158-0.121-0.193-0.442-0.219-0.519s0.008-0.208 0.158-0.286c0.149-0.078 0.114-0.173 0.044-0.424s-0.922-0.156-1.123-0.043c-0.201 0.113-0.386 0.113-0.482 0.104s-0.325-0.311-0.448-0.242c-0.123 0.069-0.456 0.502-0.693 0.615s-0.219-0.026-0.333-0.2c-0.114-0.173-0.851-0.979-0.966-1.108s-0.307-0.416-0.333-0.459-0.245-0.355-0.255-0.468c-0.008-0.113-0.167-0.45-0.255-0.528s-0.377-0.268-0.465-0.234c-0.088 0.035 0.281 0.277 0.404 0.363s-0.018 0.571 0.096 0.658 0.211 0.208 0.211 0.208c0 0 0.623 0.788 0.632 0.814s0.544 0.719 0.693 0.884 0.131 0.13 0.14 0.234c0.008 0.104-0.237 0.061-0.404-0.113s-0.395-0.061-0.719-0.19c-0.325-0.13 0.123-0.347 0.228-0.485s-0.114-0.355-0.263-0.45-0.123-0.121-0.202-0.26c-0.079-0.139-0.219-0.13-0.307-0.165s-0.193 0.008-0.184-0.078c0.008-0.087-0.070-0.182-0.175-0.19s-0.105-0.251-0.201-0.286c-0.096-0.034-0.299 0.277-0.386 0.225s0.018-0.2 0.193-0.337c0.175-0.139 0.062-0.242 0.018-0.337s-0.158-0.035-0.123 0.087c0.035 0.121-0.079 0.156-0.202 0.242s-0.219-0.19-0.167-0.337c0.053-0.147-0.316-0.026-0.386-0.113s-0.245-0.13-0.201 0.018c0.044 0.147-0.263 0-0.36 0s-0.14-0.225-0.237-0.303c-0.096-0.078-0.123 0.225-0.255 0.242s-0.149-0.277-0.201-0.433c-0.052-0.156-0.193 0.043-0.342-0.121s0.123-0.2 0.175-0.225c0.052-0.026 0.263 0.061 0.307 0.052s0.482 0.329 0.57 0.329c0.088 0 0.018-0.147 0.088-0.234s-0.044-0.26 0.062-0.347c0.105-0.087 0.395 0.632 0.535 0.64s-0.052-0.295-0.018-0.442c0.035-0.147 0.316 0.251 0.377 0.321s0.123-0.095 0.228-0.008c0.105 0.087 0.245-0.156 0.333-0.199s0.544 0.433 0.465 0.329c-0.079-0.104 0.105-0.459 0.141-0.537s0.211-0.165 0.333-0.165c0.123 0 0.175-0.147 0.175-0.234s0.184-0.268 0.263-0.363c0.079-0.095-0.052-0.234-0.044-0.39s0.105 0.078 0.175 0.13c0.070 0.052 0.044 0.19 0.114 0.337s0.026 0.199-0.026 0.286c-0.052 0.087-0.245 0.295-0.245 0.398s-0.105 0.165-0.263 0.268c-0.158 0.104-0.211 0.268-0.211 0.268 0.482-0.087 0.729-0.476 0.922-0.797s0.237-0.468 0.325-0.58c0.088-0.113 0.289-0.372 0.526-0.442s0.289-0.277 0.412-0.442c0.123-0.165 0.465-0.208 0.685-0.321s0.342 0.208 0.544 0.2c0.201-0.008 0.281-0.321 0.351-0.485s0.869-0.043 1.185-0.121c0.316-0.078 0.14-0.295 0.281-0.433s0.377-0.295 0.536-0.39c0.158-0.095 0.316-0.078 0.509-0.052s0.219-0.251 0.333-0.407c0.114-0.156 0.271-0.295 0.377-0.407s1.009-0.113 1.141-0.095c0.132 0.018 0.088 0.113 0.299 0.182s0.299-0.321 0.368-0.615c0.070-0.295 0.044-0.295 0.079-0.494s-0.105-0.182-0.184-0.363c-0.079-0.182 0.036-0.953 0.036-0.953 0.659-0.121 0.869-0.337 1.105-0.45s0.167-0.606 0.167-0.606 0.036 0.018 0.5 0.026c0.465 0.008 0.316-0.043 0.633-0.147 0.316-0.104 1.036-0.052 1.307-0.061 0.208-0.007 0.232-0.481 0.247-0.794h-32.218c0.070 0.058 0.124 0.165 0.225 0.2z"></path>
<path fill="#ffd500" style="fill: var(--color3, #ffd500)" d="M13.643 16.067h-0.104c0.030 0.019 0.066 0.017 0.104 0z"></path>
</symbol>
<symbol id="icon-phone-min" viewBox="0 0 32 32">
<path d="M29.517 22.979c-0.965-0.738-2.038-1.476-3.11-2.214-2.038-1.476-3.968-1.582-5.577 0.738-0.858 1.265-2.145 1.371-3.432 0.738-3.539-1.582-6.221-4.007-7.83-7.487-0.751-1.582-0.644-2.953 0.965-4.113 0.858-0.633 1.716-1.265 1.716-2.531-0.107-1.687-4.183-7.171-5.792-7.803-0.644-0.211-1.287-0.211-2.038 0-3.754 1.265-5.363 4.324-3.861 8.014 4.505 10.862 12.442 18.454 23.275 23.094 0.644 0.211 1.287 0.316 1.716 0.422 2.467 0 5.363-2.32 6.221-4.64 0.858-2.215-0.858-3.164-2.252-4.218z"></path>
</symbol>
</defs>
</svg>
