<svg aria-hidden="true" style="position: absolute; width: 0; height: 0; overflow: hidden;" version="1.1" xmlns="http://www.w3.org/2000/svg" xmlns:xlink="http://www.w3.org/1999/xlink">
<defs>
<symbol id="icon-corner-vector" viewBox="0 0 35 32">
<path fill="#545a82" d="M35.069 25.389l-8.852 6.26v-6.26h8.852z"></path>
<path fill="#fcca0c" opacity="0.6" d="M35.068 0.087h-35.068v25.302h35.068v-25.302z"></path>
</symbol>
<symbol id="icon-whatsapp" viewBox="0 0 32 32">
<path d="M23.655 19.145c-0.414-0.205-2.345-1.231-2.69-1.368s-0.621-0.205-0.897 0.137c-0.276 0.41-1.103 1.231-1.31 1.504-0.276 0.273-0.483 0.273-0.897 0.068s-1.655-0.684-3.172-2.12c-1.172-1.094-1.931-2.462-2.138-2.872s0-0.615 0.207-0.821c0.207-0.205 0.414-0.479 0.621-0.684s0.276-0.41 0.414-0.615c0.138-0.274 0.069-0.479 0-0.684s-0.828-2.188-1.103-3.008c-0.276-0.821-0.621-0.684-0.897-0.684-0.207 0-0.483-0.068-0.759-0.068s-0.69 0.068-1.103 0.479-1.448 1.299-1.517 3.282c-0.069 1.983 1.31 3.898 1.517 4.171s2.621 4.513 6.621 6.291 4.069 1.231 4.759 1.162c0.759-0.068 2.414-0.889 2.759-1.778s0.414-1.709 0.276-1.915c0-0.137-0.276-0.273-0.69-0.479zM16.276 28.581c-2.69 0-5.103-0.82-7.172-2.12l-5.035 1.573 1.655-4.786c-1.586-2.188-2.483-4.786-2.483-7.658 0-7.18 5.862-12.992 13.103-12.992s13.103 5.812 13.103 12.992c-0.069 7.179-5.931 12.991-13.172 12.991zM16.276 0c-8.621 0-15.724 6.974-15.724 15.59 0 2.94 0.828 5.675 2.276 8.068l-2.828 8.342 8.69-2.735c2.276 1.231 4.828 1.915 7.586 1.915 8.69 0 15.724-6.974 15.724-15.59s-7.035-15.59-15.724-15.59z"></path>
</symbol>
<symbol id="icon-phone" viewBox="0 0 30 32">
<path d="M27.888 23.069c-0.913-0.72-1.926-1.441-2.94-2.161-1.926-1.441-3.751-1.543-5.272 0.72-0.811 1.235-2.028 1.338-3.244 0.72-3.346-1.543-5.88-3.91-7.401-7.305-0.71-1.543-0.608-2.881 0.912-4.013 0.811-0.617 1.622-1.235 1.622-2.469-0.101-1.646-3.954-6.997-5.475-7.614-0.608-0.206-1.217-0.206-1.926 0-3.549 1.235-5.069 4.219-3.65 7.82 4.258 10.598 11.761 18.006 22.001 22.533 0.608 0.206 1.217 0.309 1.622 0.412 2.332 0 5.069-2.264 5.88-4.527 0.811-2.161-0.811-3.087-2.129-4.116z"></path>
<path d="M16.33 1.668c7.503 1.132 11.051 4.836 11.964 12.553 0.101 0.72-0.203 1.749 0.811 1.852 1.014 0 0.811-1.029 0.811-1.749 0.101-7.202-6.185-13.993-13.383-14.199-0.507 0.103-1.724-0.412-1.724 0.823 0 0.72 0.912 0.617 1.521 0.72z"></path>
<path d="M17.849 3.828c-0.71-0.103-1.724-0.412-1.825 0.617-0.203 1.029 0.912 0.926 1.622 1.132 4.664 1.029 6.286 2.778 6.996 7.408 0.101 0.72-0.101 1.749 1.014 1.543 0.811-0.103 0.507-1.029 0.608-1.543 0-4.527-3.751-8.643-8.415-9.157z"></path>
<path d="M18.255 7.43c-0.507 0-0.913 0.103-1.115 0.617-0.304 0.823 0.304 0.926 0.913 1.029 1.926 0.309 2.94 1.441 3.143 3.395 0.101 0.514 0.406 0.926 0.913 0.926 0.71-0.103 0.71-0.72 0.71-1.338-0.101-2.161-2.535-4.63-4.562-4.63z"></path>
</symbol>
<symbol id="icon-skype" viewBox="0 0 32 32">
<path d="M30.67 18.346c0.14-0.77 0.14-1.54 0.14-2.381 0-8.193-6.652-14.845-14.845-14.845-0.77 0-1.54 0.070-2.311 0.21-1.4-0.84-3.011-1.33-4.691-1.33-4.972 0-8.963 3.991-8.963 8.963 0 1.751 0.49 3.361 1.33 4.691-0.14 0.77-0.21 1.541-0.21 2.311 0 8.263 6.652 14.845 14.845 14.845 0.77 0 1.541-0.070 2.311-0.21 1.4 0.84 3.011 1.33 4.691 1.33 4.972 0 8.963-3.991 8.963-8.963 0.070-1.681-0.42-3.291-1.26-4.622zM23.037 22.757c-0.63 0.91-1.54 1.611-2.731 2.101s-2.661 0.77-4.271 0.77c-1.961 0-3.641-0.35-4.902-1.050-0.91-0.49-1.681-1.19-2.241-2.031s-0.84-1.681-0.84-2.451c0-0.49 0.21-0.91 0.56-1.19 0.35-0.35 0.84-0.49 1.33-0.49 0.42 0 0.84 0.14 1.12 0.42s0.56 0.63 0.77 1.12c0.28 0.56 0.56 1.050 0.84 1.47s0.7 0.7 1.19 0.98 1.19 0.35 2.101 0.35c1.19 0 2.171-0.28 2.871-0.77 0.77-0.49 1.12-1.12 1.12-1.891 0-0.63-0.21-1.050-0.56-1.471-0.42-0.35-0.91-0.63-1.541-0.84s-1.47-0.42-2.591-0.63c-1.47-0.28-2.661-0.7-3.641-1.12s-1.751-0.98-2.311-1.751c-0.56-0.7-0.84-1.611-0.84-2.731 0-1.050 0.28-1.961 0.91-2.731s1.47-1.4 2.661-1.821c1.12-0.42 2.451-0.63 3.991-0.63 1.26 0 2.311 0.14 3.221 0.42s1.681 0.63 2.241 1.12c0.63 0.49 1.050 0.98 1.33 1.47s0.42 1.050 0.42 1.54c0 0.49-0.21 0.91-0.56 1.26s-0.77 0.56-1.33 0.56c-0.49 0-0.84-0.14-1.12-0.35s-0.49-0.56-0.77-1.050c-0.35-0.7-0.77-1.26-1.26-1.611s-1.26-0.56-2.381-0.56c-1.050 0-1.891 0.21-2.521 0.63s-0.91 0.91-0.91 1.47c0 0.35 0.070 0.63 0.28 0.91s0.49 0.49 0.91 0.7c0.35 0.21 0.77 0.35 1.12 0.42 0.42 0.14 1.050 0.28 1.961 0.49 1.12 0.21 2.171 0.49 3.081 0.84 0.91 0.28 1.681 0.63 2.311 1.050s1.19 0.98 1.54 1.611c0.35 0.63 0.56 1.471 0.56 2.381-0.14 1.12-0.49 2.171-1.12 3.081z"></path>
</symbol>
<symbol id="icon-footer-logo" viewBox="0 0 135 32">
<path fill="#fcca0c" style="fill: var(--color1, #fcca0c)" d="M132.682-0l-75.806 8.007 2.508 23.993 75.806-8.007-2.508-23.993z"></path>
<path fill="#fcca0c" style="fill: var(--color1, #fcca0c)" opacity="0.2" d="M133.708 2.606l-76.18 2.674 0.838 24.111 76.18-2.674-0.838-24.111z"></path>
<path fill="#fcca0c" style="fill: var(--color1, #fcca0c)" d="M134.148 3.934h-76.225v24.126h76.225v-24.126z"></path>
<path fill="#000" style="fill: var(--color2, #000)" d="M0 9.169h3.754c1.497 0 2.615 0.27 3.374 0.786 0.76 0.539 1.14 1.46 1.14 2.808 0 0.921-0.112 1.64-0.358 2.179s-0.67 0.966-1.318 1.258l1.855 6.627h-3.084l-1.497-6.133h-0.849v6.133h-3.017v-13.658zM3.844 14.964c0.603 0 1.028-0.157 1.274-0.472s0.358-0.809 0.358-1.438c0-0.629-0.112-1.078-0.335-1.393s-0.603-0.472-1.162-0.472h-0.983v3.774h0.849z"></path>
<path fill="#000" style="fill: var(--color2, #000)" d="M10.078 9.169h6.123v2.067h-3.129v3.392h2.369v2.089h-2.369v4.088h3.151v2.044h-6.145v-13.68z"></path>
<path fill="#000" style="fill: var(--color2, #000)" d="M17.766 9.169h3.218l1.497 7.952 1.609-7.952h3.106l0.246 13.68h-2.123l-0.246-9.098-1.587 9.098h-1.899l-1.698-9.187-0.201 9.165h-2.168l0.246-13.658z"></path>
<path fill="#000" style="fill: var(--color2, #000)" d="M30.168 21.906c-0.626-0.764-0.939-1.887-0.939-3.37v-5.077c0-1.483 0.313-2.606 0.939-3.347s1.676-1.123 3.151-1.123 2.525 0.382 3.173 1.123c0.626 0.764 0.939 1.864 0.939 3.347v5.077c0 1.483-0.313 2.606-0.939 3.37s-1.698 1.146-3.173 1.146c-1.475 0-2.525-0.382-3.151-1.146zM34.146 20.468c0.134-0.292 0.201-0.674 0.201-1.168v-6.582c0-0.517-0.067-0.899-0.201-1.191s-0.425-0.427-0.849-0.427c-0.402 0-0.67 0.135-0.804 0.427s-0.201 0.674-0.201 1.168v6.582c0 0.494 0.067 0.876 0.179 1.168 0.134 0.292 0.402 0.427 0.827 0.427 0.425 0.022 0.715-0.112 0.849-0.404z"></path>
<path fill="#000" style="fill: var(--color2, #000)" d="M40.337 11.415h-2.056v-2.246h7.106v2.246h-2.034v11.434h-3.017v-11.434z"></path>
<path fill="#000" style="fill: var(--color2, #000)" d="M52.739 20.805v2.044h-6.078v-13.68h6.034v2.044h-3.106v3.414h2.369v2.089h-2.369v4.088h3.151z"></path>
<path fill="#fff" style="fill: var(--color3, #fff)" d="M66.325 9.169h3.017v5.526h2.1v-5.526h3.017v13.68h-3.017v-5.998h-2.1v5.975h-3.017v-13.658z"></path>
<path fill="#fff" style="fill: var(--color3, #fff)" d="M76.516 9.169h6.123v2.067h-3.106v3.392h2.369v2.089h-2.369v4.088h3.151v2.044h-6.145v-13.68h-0.022z"></path>
<path fill="#fff" style="fill: var(--color3, #fff)" d="M84.024 9.169h3.017v11.636h3.128v2.044h-6.145v-13.68z"></path>
<path fill="#fff" style="fill: var(--color3, #fff)" d="M91.464 9.169h4.559c1.207 0 2.101 0.337 2.682 1.011 0.604 0.674 0.894 1.662 0.894 2.943 0 1.46-0.335 2.471-1.028 3.055-0.693 0.562-1.654 0.854-2.905 0.854h-1.206v5.818h-3.017v-13.68h0.022zM95.487 14.919c0.536 0 0.872-0.135 1.050-0.427s0.268-0.764 0.268-1.415c0-0.606-0.090-1.056-0.246-1.348-0.179-0.292-0.536-0.449-1.073-0.449h-0.983v3.639h0.983z"></path>
<path fill="#fff" style="fill: var(--color3, #fff)" d="M101.053 9.169h6.123v2.067h-3.106v3.392h2.369v2.089h-2.369v4.088h3.151v2.044h-6.145v-13.68h-0.022z"></path>
<path fill="#fff" style="fill: var(--color3, #fff)" d="M108.56 9.169h3.754c1.497 0 2.615 0.27 3.374 0.786 0.76 0.539 1.14 1.46 1.14 2.808 0 0.921-0.112 1.64-0.357 2.179s-0.67 0.966-1.319 1.258l1.855 6.627h-3.106l-1.497-6.133h-0.849v6.133h-3.017v-13.658h0.022zM112.404 14.964c0.603 0 1.028-0.157 1.274-0.472s0.358-0.809 0.358-1.438c0-0.629-0.112-1.078-0.335-1.393s-0.603-0.472-1.162-0.472h-0.983v3.774h0.849z"></path>
<path fill="#fff" style="fill: var(--color3, #fff)" d="M119.287 21.996c-0.626-0.696-0.961-1.797-1.006-3.302l2.57-0.382c0 0.876 0.112 1.483 0.313 1.864s0.492 0.562 0.872 0.562c0.514 0 0.76-0.337 0.76-0.988 0-0.539-0.112-0.988-0.358-1.37s-0.626-0.786-1.14-1.235l-1.184-1.033c-0.581-0.494-1.028-1.011-1.341-1.572s-0.469-1.213-0.469-1.977c0-1.146 0.335-2.022 1.006-2.651s1.609-0.921 2.793-0.921c1.296 0 2.168 0.382 2.637 1.123 0.469 0.764 0.715 1.662 0.737 2.741l-2.592 0.314c-0.022-0.719-0.090-1.213-0.201-1.528s-0.335-0.472-0.693-0.472c-0.268 0-0.447 0.112-0.603 0.337-0.134 0.225-0.201 0.472-0.201 0.741 0 0.472 0.112 0.854 0.313 1.168s0.536 0.674 1.006 1.078l1.117 0.988c0.67 0.584 1.184 1.191 1.564 1.82 0.38 0.651 0.559 1.393 0.559 2.269 0 0.651-0.156 1.213-0.447 1.752-0.29 0.517-0.715 0.943-1.251 1.235-0.536 0.314-1.162 0.449-1.855 0.449-1.318 0.045-2.28-0.315-2.905-1.011z"></path>
</symbol>
<symbol id="icon-phone-min" viewBox="0 0 32 32">
<path d="M29.517 22.979c-0.965-0.738-2.038-1.476-3.11-2.214-2.038-1.476-3.968-1.582-5.577 0.738-0.858 1.265-2.145 1.371-3.432 0.738-3.539-1.582-6.221-4.007-7.83-7.487-0.751-1.582-0.644-2.953 0.965-4.113 0.858-0.633 1.716-1.265 1.716-2.531-0.107-1.687-4.183-7.171-5.792-7.803-0.644-0.211-1.287-0.211-2.038 0-3.754 1.265-5.363 4.324-3.861 8.014 4.505 10.862 12.442 18.454 23.275 23.094 0.644 0.211 1.287 0.316 1.716 0.422 2.467 0 5.363-2.32 6.221-4.64 0.858-2.215-0.858-3.164-2.252-4.218z"></path>
</symbol>
</defs>
</svg>
