<svg width="34" height="36" viewBox="0 0 34 36" fill="none" xmlns="http://www.w3.org/2000/svg">
<g clip-path="url(#clip0_5016_9820)">
<path d="M31.3741 25.9529C30.3475 25.1426 29.2069 24.3323 28.0663 23.5221C25.8992 21.9015 23.8461 21.7858 22.1352 24.3323C21.2227 25.7214 19.854 25.8371 18.4853 25.1426C14.7213 23.4063 11.8698 20.744 10.1589 16.9241C9.36047 15.1878 9.47453 13.683 11.1854 12.4098C12.0979 11.7152 13.0104 11.0207 13.0104 9.63169C12.8963 7.77964 8.56206 1.76048 6.85116 1.06596C6.1668 0.834457 5.48244 0.834457 4.68402 1.06596C0.691915 2.455 -1.01898 5.81184 0.577856 9.8632C5.36838 21.7858 13.8088 30.12 25.3289 35.2131C26.0132 35.4446 26.6976 35.5604 27.1538 35.6761C29.7772 35.6761 32.8568 33.1296 33.7693 30.583C34.6818 28.1522 32.8568 27.1104 31.3741 25.9529Z" fill="#23329A"/>
<path d="M18.3711 1.8761C26.8115 3.14939 30.8036 7.3165 31.8301 15.998C31.9442 16.8083 31.602 17.9658 32.7426 18.0815C33.8832 18.0815 33.6551 16.924 33.6551 16.1137C33.7692 8.01102 26.6974 0.371313 18.5992 0.139806C18.0289 0.25556 16.6602 -0.323202 16.6602 1.06583C16.6602 1.87611 17.6867 1.76035 18.3711 1.8761Z" fill="#23329A"/>
<path d="M20.0804 4.30698C19.2819 4.19123 18.1413 3.84397 18.0273 5.0015C17.7992 6.15903 19.0538 6.04329 19.8522 6.27479C25.099 7.43232 26.924 9.40012 27.7224 14.609C27.8364 15.4193 27.6083 16.5768 28.863 16.3453C29.7755 16.2296 29.4333 15.1878 29.5473 14.609C29.5473 9.51588 25.3271 4.88575 20.0804 4.30698Z" fill="#23329A"/>
<path d="M20.5371 8.35828C19.9668 8.35828 19.5105 8.47403 19.2824 9.05279C18.9402 9.97882 19.6246 10.0946 20.309 10.2103C22.4761 10.5576 23.6167 11.8309 23.8448 14.0302C23.9589 14.6089 24.3011 15.072 24.8714 15.072C25.6698 14.9562 25.6698 14.2617 25.6698 13.5672C25.5557 11.1364 22.8183 8.35828 20.5371 8.35828Z" fill="#23329A"/>
</g>
<defs>
<clipPath id="clip0_5016_9820">
<rect width="34" height="35.7" fill="white"/>
</clipPath>
</defs>
</svg>
