<svg width="20" height="20" viewBox="0 0 20 20" fill="none" xmlns="http://www.w3.org/2000/svg">
<path d="M18.4483 14.3621C17.845 13.9008 17.1747 13.4394 16.5043 12.9781C15.2306 12.0554 14.024 11.9895 13.0185 13.4394C12.4822 14.2303 11.6778 14.2962 10.8733 13.9008C8.66118 12.9122 6.9853 11.3963 5.97977 9.22137C5.51052 8.23277 5.57756 7.37598 6.58309 6.651C7.11937 6.25556 7.65565 5.86011 7.65565 5.06923C7.58861 4.01472 5.04128 0.587564 4.03575 0.192122C3.63353 0.0603083 3.23132 0.0603083 2.76207 0.192122C0.415835 0.983005 -0.589694 2.89431 0.348801 5.20105C3.16429 11.9895 8.1249 16.7348 14.8955 19.6347C15.2977 19.7665 15.6999 19.8324 15.968 19.8983C17.5098 19.8983 19.3198 18.4483 19.8561 16.9984C20.3924 15.6143 19.3198 15.0212 18.4483 14.3621Z" fill="#23329A"/>
</svg>
