<svg width="36" height="36" viewBox="0 0 36 36" fill="none" xmlns="http://www.w3.org/2000/svg">
<path d="M34.5033 20.6389C34.6608 19.7724 34.6608 18.9059 34.6608 17.9606C34.6608 8.74398 27.1772 1.26039 17.9606 1.26039C17.0941 1.26039 16.2276 1.33917 15.361 1.49672C13.7856 0.551422 11.9737 0 10.0832 0C4.49015 0 0 4.49015 0 10.0831C0 12.0525 0.551422 13.8643 1.49672 15.361C1.33917 16.2276 1.26039 17.0941 1.26039 17.9606C1.26039 27.256 8.74398 34.6608 17.9606 34.6608C18.8271 34.6608 19.6937 34.5821 20.5602 34.4245C22.1357 35.3698 23.9475 35.9212 25.8381 35.9212C31.4311 35.9212 35.9212 31.4311 35.9212 25.8381C36 23.9475 35.4486 22.1357 34.5033 20.6389ZM25.9168 25.6017C25.2079 26.6258 24.1838 27.4136 22.8446 27.965C21.5055 28.5164 19.8512 28.8315 18.0394 28.8315C15.8337 28.8315 13.9431 28.4376 12.5252 27.6499C11.5011 27.0985 10.6346 26.3107 10.0044 25.3654C9.37418 24.4201 9.05908 23.4748 9.05908 22.6083C9.05908 22.0569 9.2954 21.5842 9.68928 21.2691C10.0832 20.8753 10.6346 20.7177 11.186 20.7177C11.6586 20.7177 12.1313 20.8753 12.4464 21.1904C12.7615 21.5055 13.0766 21.8993 13.3129 22.4508C13.628 23.081 13.9431 23.6324 14.2582 24.105C14.5733 24.5777 15.046 24.8928 15.5974 25.2079C16.1488 25.523 16.9365 25.6017 17.9606 25.6017C19.2998 25.6017 20.4026 25.2866 21.1904 24.7352C22.0569 24.1838 22.4508 23.4748 22.4508 22.6083C22.4508 21.8993 22.2144 21.4267 21.8206 20.954C21.3479 20.5602 20.7965 20.2451 20.0875 20.0087C19.3786 19.7724 18.4333 19.5361 17.1729 19.2998C15.5186 18.9847 14.1794 18.512 13.0766 18.0394C11.9737 17.5667 11.1072 16.9365 10.477 16.07C9.84683 15.2823 9.53173 14.2582 9.53173 12.9978C9.53173 11.8162 9.84683 10.7921 10.5558 9.9256C11.2648 9.05908 12.2101 8.35011 13.5492 7.87746C14.8096 7.40481 16.3063 7.16849 18.0394 7.16849C19.4573 7.16849 20.6389 7.32604 21.663 7.64114C22.6871 7.95624 23.5536 8.35011 24.1838 8.90153C24.8928 9.45295 25.3654 10.0044 25.6805 10.5558C25.9956 11.1072 26.1532 11.7374 26.1532 12.2888C26.1532 12.8403 25.9168 13.3129 25.523 13.7068C25.1291 14.1007 24.6565 14.337 24.0263 14.337C23.4748 14.337 23.081 14.1794 22.7659 13.9431C22.4508 13.7068 22.2144 13.3129 21.8993 12.7615C21.5055 11.9737 21.0328 11.3435 20.4814 10.9497C19.93 10.5558 19.0635 10.3195 17.8031 10.3195C16.6214 10.3195 15.6761 10.5558 14.9672 11.0284C14.2582 11.5011 13.9431 12.0525 13.9431 12.6827C13.9431 13.0766 14.0219 13.3917 14.2582 13.7068C14.4945 14.0219 14.8096 14.2582 15.2823 14.4945C15.6761 14.7309 16.1488 14.8884 16.5427 14.9672C17.0153 15.1247 17.7243 15.2823 18.7484 15.5186C20.0088 15.7549 21.1904 16.07 22.2144 16.4639C23.2385 16.779 24.105 17.1729 24.814 17.6455C25.523 18.1182 26.1532 18.7484 26.547 19.4573C26.9409 20.1663 27.1772 21.1116 27.1772 22.1357C27.0197 23.3961 26.6258 24.5777 25.9168 25.6017Z" fill="#23329A"/>
</svg>
