<svg aria-hidden="true" style="position: absolute; width: 0; height: 0; overflow: hidden;" version="1.1" xmlns="http://www.w3.org/2000/svg" xmlns:xlink="http://www.w3.org/1999/xlink">
<defs>
<symbol id="icon-phone-min" viewBox="0 0 32 32">
<path fill="#23329a" style="fill: var(--color1, #23329a)" d="M29.517 22.979c-0.965-0.738-2.038-1.476-3.11-2.214-2.038-1.476-3.968-1.582-5.577 0.738-0.858 1.265-2.145 1.371-3.432 0.738-3.539-1.582-6.221-4.007-7.83-7.487-0.751-1.582-0.644-2.953 0.965-4.113 0.858-0.633 1.716-1.265 1.716-2.531-0.107-1.687-4.183-7.171-5.792-7.803-0.644-0.211-1.287-0.211-2.038 0-3.754 1.265-5.363 4.324-3.861 8.014 4.505 10.862 12.442 18.454 23.275 23.094 0.644 0.211 1.287 0.316 1.716 0.422 2.467 0 5.363-2.32 6.221-4.64 0.858-2.215-0.858-3.164-2.252-4.218z"></path>
</symbol>
</defs>
</svg>
