<svg aria-hidden="true" style="position: absolute; width: 0; height: 0; overflow: hidden;" version="1.1" xmlns="http://www.w3.org/2000/svg" xmlns:xlink="http://www.w3.org/1999/xlink">
<defs>
<symbol id="icon-footer-logo" viewBox="0 0 126 32">
<path fill="#b0083a" style="fill: var(--color1, #b0083a)" d="M123.831 0.544l-70.749 7.758 2.341 23.248 70.749-7.759-2.341-23.248z"></path>
<path fill="#f00f52" style="fill: var(--color2, #f00f52)" opacity="0.2" d="M124.788 3.069l-71.098 2.591 0.782 23.363 71.098-2.591-0.782-23.363z"></path>
<path fill="#d40e49" style="fill: var(--color3, #d40e49)" d="M125.2 4.357h-71.141v23.377h71.141v-23.377z"></path>
<path fill="#000" style="fill: var(--color4, #000)" d="M0 9.429h3.504c1.397 0 2.44 0.261 3.149 0.762 0.709 0.522 1.064 1.415 1.064 2.721 0 0.892-0.104 1.589-0.334 2.111s-0.626 0.936-1.231 1.219l1.731 6.421h-2.878l-1.397-5.942h-0.793v5.942h-2.816v-13.233zM3.587 15.044c0.563 0 0.959-0.152 1.189-0.457s0.334-0.784 0.334-1.393c0-0.609-0.104-1.045-0.313-1.35s-0.563-0.457-1.085-0.457h-0.918v3.657h0.793z"></path>
<path fill="#000" style="fill: var(--color4, #000)" d="M9.406 9.429h5.715v2.003h-2.92v3.287h2.211v2.024h-2.211v3.962h2.941v1.981h-5.735v-13.256z"></path>
<path fill="#000" style="fill: var(--color4, #000)" d="M16.58 9.429h3.003l1.397 7.705 1.502-7.705h2.899l0.229 13.256h-1.981l-0.23-8.815-1.481 8.815h-1.773l-1.585-8.902-0.188 8.881h-2.023l0.229-13.234z"></path>
<path fill="#000" style="fill: var(--color4, #000)" d="M28.155 21.769c-0.584-0.74-0.876-1.828-0.876-3.265v-4.919c0-1.437 0.292-2.525 0.876-3.243s1.564-1.088 2.941-1.088c1.376 0 2.357 0.37 2.962 1.088 0.584 0.74 0.876 1.806 0.876 3.243v4.919c0 1.436-0.292 2.525-0.876 3.265s-1.585 1.11-2.962 1.11c-1.377 0-2.357-0.37-2.941-1.11zM31.868 20.377c0.125-0.283 0.188-0.653 0.188-1.132v-6.377c0-0.501-0.063-0.871-0.188-1.154s-0.396-0.414-0.793-0.414c-0.375 0-0.626 0.131-0.751 0.414s-0.188 0.653-0.188 1.132v6.377c0 0.479 0.063 0.849 0.167 1.132 0.125 0.283 0.375 0.414 0.772 0.414 0.396 0.022 0.667-0.109 0.793-0.392z"></path>
<path fill="#000" style="fill: var(--color4, #000)" d="M37.646 11.605h-1.919v-2.177h6.632v2.177h-1.898v11.079h-2.816v-11.079z"></path>
<path fill="#000" style="fill: var(--color4, #000)" d="M49.221 20.704v1.981h-5.673v-13.256h5.631v1.981h-2.899v3.309h2.211v2.024h-2.211v3.962h2.941z"></path>
<path fill="#fff" style="fill: var(--color5, #fff)" d="M61.901 9.428h2.816v5.355h1.96v-5.355h2.816v13.256h-2.816v-5.812h-1.96v5.79h-2.816v-13.234z"></path>
<path fill="#fff" style="fill: var(--color5, #fff)" d="M71.412 9.428h5.715v2.003h-2.899v3.287h2.211v2.024h-2.211v3.962h2.941v1.981h-5.735v-13.256h-0.021z"></path>
<path fill="#fff" style="fill: var(--color5, #fff)" d="M78.419 9.428h2.816v11.275h2.92v1.981h-5.735v-13.256z"></path>
<path fill="#fff" style="fill: var(--color5, #fff)" d="M85.364 9.428h4.255c1.126 0 1.96 0.326 2.502 0.979 0.563 0.653 0.835 1.611 0.835 2.851 0 1.415-0.313 2.394-0.959 2.96-0.647 0.544-1.544 0.827-2.712 0.827h-1.126v5.637h-2.816v-13.256h0.021zM89.118 15c0.501 0 0.813-0.131 0.98-0.414s0.25-0.74 0.25-1.371c0-0.588-0.083-1.023-0.229-1.306-0.167-0.283-0.501-0.435-1.001-0.435h-0.918v3.526h0.918z"></path>
<path fill="#fff" style="fill: var(--color5, #fff)" d="M94.311 9.428h5.715v2.003h-2.899v3.287h2.211v2.024h-2.211v3.962h2.94v1.981h-5.735v-13.256h-0.021z"></path>
<path fill="#fff" style="fill: var(--color5, #fff)" d="M101.319 9.428h3.504c1.397 0 2.44 0.261 3.15 0.762 0.709 0.522 1.063 1.415 1.063 2.721 0 0.892-0.104 1.589-0.334 2.111s-0.625 0.936-1.231 1.219l1.731 6.421h-2.898l-1.398-5.942h-0.793v5.942h-2.815v-13.234h0.021zM104.906 15.044c0.563 0 0.96-0.152 1.189-0.457s0.334-0.784 0.334-1.393-0.105-1.045-0.314-1.35c-0.208-0.305-0.563-0.457-1.084-0.457h-0.918v3.657h0.793z"></path>
<path fill="#fff" style="fill: var(--color5, #fff)" d="M111.33 21.857c-0.584-0.675-0.897-1.741-0.939-3.2l2.399-0.37c0 0.849 0.104 1.437 0.292 1.807s0.459 0.544 0.814 0.544c0.479 0 0.709-0.326 0.709-0.958 0-0.522-0.104-0.958-0.334-1.328s-0.584-0.762-1.063-1.197l-1.105-1.001c-0.542-0.479-0.96-0.979-1.252-1.524s-0.438-1.175-0.438-1.915c0-1.11 0.313-1.959 0.939-2.568s1.501-0.892 2.607-0.892c1.21 0 2.023 0.37 2.461 1.088 0.438 0.74 0.667 1.611 0.688 2.655l-2.419 0.305c-0.020-0.697-0.083-1.175-0.187-1.48s-0.313-0.457-0.646-0.457c-0.251 0-0.417 0.109-0.563 0.326-0.125 0.218-0.187 0.457-0.187 0.718 0 0.457 0.104 0.827 0.292 1.132s0.501 0.653 0.939 1.045l1.042 0.958c0.625 0.566 1.105 1.154 1.46 1.763 0.355 0.631 0.521 1.349 0.521 2.198 0 0.631-0.145 1.175-0.417 1.698-0.272 0.501-0.667 0.914-1.168 1.197-0.501 0.305-1.085 0.435-1.732 0.435-1.231 0.044-2.128-0.305-2.711-0.979z"></path>
</symbol>
</defs>
</svg>
