<svg width="36" height="36" viewBox="0 0 36 36" fill="none" xmlns="http://www.w3.org/2000/svg">
<path fill-rule="evenodd" clip-rule="evenodd" d="M26.6121 21.5385C26.1465 21.3077 23.9741 20.1538 23.5862 20C23.1983 19.8462 22.8879 19.7692 22.5776 20.1538C22.2672 20.6154 21.3362 21.5385 21.1034 21.8462C20.7931 22.1538 20.5603 22.1538 20.0948 21.9231C19.6293 21.6923 18.2328 21.1538 16.5259 19.5385C15.2069 18.3077 14.3534 16.7692 14.1207 16.3077C13.8879 15.8462 14.1207 15.6154 14.3534 15.3846C14.5862 15.1538 14.819 14.8462 15.0517 14.6154C15.2845 14.3846 15.3621 14.1538 15.5172 13.9231C15.6724 13.6154 15.5948 13.3846 15.5172 13.1538C15.4397 12.9231 14.5862 10.6923 14.2759 9.76923C13.9655 8.84615 13.5776 9 13.2672 9C13.0345 9 12.7241 8.92308 12.4138 8.92308C12.1034 8.92308 11.6379 9 11.1724 9.46154C10.7069 9.92308 9.5431 10.9231 9.46552 13.1538C9.38793 15.3846 10.9397 17.5385 11.1724 17.8462C11.4052 18.1538 14.1207 22.9231 18.6207 24.9231C23.1207 26.9231 23.1983 26.3077 23.9741 26.2308C24.8276 26.1538 26.6897 25.2308 27.0776 24.2308C27.4655 23.2308 27.5431 22.3077 27.3879 22.0769C27.3879 21.9231 27.0776 21.7692 26.6121 21.5385ZM18.3103 32.1538C15.2845 32.1538 12.569 31.2308 10.2414 29.7692L4.57759 31.5385L6.43965 26.1538C4.65517 23.6923 3.64655 20.7692 3.64655 17.5385C3.64655 9.46154 10.2414 2.92308 18.3879 2.92308C26.5345 2.92308 33.1293 9.46154 33.1293 17.5385C33.0517 25.6154 26.4569 32.1538 18.3103 32.1538ZM18.3103 0C8.61207 0 0.62069 7.84615 0.62069 17.5385C0.62069 20.8462 1.55172 23.9231 3.18103 26.6154L0 36L9.77586 32.9231C12.3362 34.3077 15.2069 35.0769 18.3103 35.0769C28.0862 35.0769 36 27.2308 36 17.5385C36 7.84615 28.0862 0 18.3103 0Z" fill="#23329A"/>
</svg>
